<svg xmlns="http://www.w3.org/2000/svg" xmlns:xlink="http://www.w3.org/1999/xlink" width="500" zoomAndPan="magnify" viewBox="0 0 375 374.999991" height="500" preserveAspectRatio="xMidYMid meet" version="1.0"><defs><g/><clipPath id="1da8051662"><path d="M 111 126.113281 L 120 126.113281 L 120 131 L 111 131 Z M 111 126.113281 " clip-rule="nonzero"/></clipPath><clipPath id="fb8af6bea8"><path d="M 54.648438 171 L 58 171 L 58 189 L 54.648438 189 Z M 54.648438 171 " clip-rule="nonzero"/></clipPath><clipPath id="73797c49dd"><path d="M 110 249 L 112 249 L 112 249.113281 L 110 249.113281 Z M 110 249 " clip-rule="nonzero"/></clipPath><clipPath id="4e3492aeab"><path d="M 153 126.113281 L 168 126.113281 L 168 140 L 153 140 Z M 153 126.113281 " clip-rule="nonzero"/></clipPath><clipPath id="879fbd098e"><path d="M 161 191 L 173.898438 191 L 173.898438 207 L 161 207 Z M 161 191 " clip-rule="nonzero"/></clipPath></defs><rect x="-37.5" width="450" fill="#ffffff" y="-37.499999" height="449.999989" fill-opacity="1"/><rect x="-37.5" width="450" fill="#ffffff" y="-37.499999" height="449.999989" fill-opacity="1"/><g clip-path="url(#1da8051662)"><path fill="#689ac5" d="M 113.480469 129.601562 C 114.769531 129.910156 116.484375 130.324219 117.769531 130.636719 C 118.253906 130.15625 118.886719 129.503906 119.324219 128.980469 C 118.15625 128.175781 116.976562 127.542969 115.785156 127.089844 C 114.765625 126.96875 113.40625 126.816406 112.386719 126.710938 C 112.1875 126.976562 111.886719 127.308594 111.644531 127.53125 C 112.25 128.046875 112.863281 128.738281 113.480469 129.601562 " fill-opacity="1" fill-rule="nonzero"/></g><path fill="#274082" d="M 106.007812 130.589844 C 106.984375 130.921875 108.292969 131.355469 109.277344 131.667969 C 110.085938 131.109375 111.15625 130.363281 111.953125 129.785156 C 111.476562 128.910156 111.011719 128.199219 110.558594 127.664062 C 109.863281 127.53125 108.929688 127.351562 108.234375 127.214844 C 107.667969 127.523438 106.914062 127.929688 106.34375 128.234375 C 106.203125 128.847656 106.089844 129.636719 106.007812 130.589844 " fill-opacity="1" fill-rule="nonzero"/><path fill="#69a2cd" d="M 98.824219 131.738281 C 99.4375 132.113281 100.269531 132.585938 100.90625 132.914062 C 101.984375 132.285156 103.421875 131.445312 104.5 130.816406 C 104.722656 129.839844 104.980469 129.03125 105.277344 128.394531 C 104.929688 128.238281 104.464844 128.027344 104.140625 127.824219 C 103.269531 128.1875 102.117188 128.671875 101.253906 129.046875 C 100.390625 129.777344 99.578125 130.679688 98.824219 131.738281 " fill-opacity="1" fill-rule="nonzero"/><path fill="#69a2cd" d="M 92.394531 132.972656 C 92.585938 133.390625 92.898438 133.929688 93.1875 134.289062 C 94.457031 133.589844 96.152344 132.667969 97.429688 131.988281 C 98.320312 130.902344 99.265625 129.976562 100.265625 129.222656 C 100.234375 129.007812 100.257812 128.6875 100.363281 128.496094 C 99.257812 128.914062 97.789062 129.480469 96.695312 129.921875 C 95.191406 130.773438 93.753906 131.792969 92.394531 132.972656 " fill-opacity="1" fill-rule="nonzero"/><path fill="#69a2cd" d="M 87.191406 134.207031 C 86.976562 134.636719 86.730469 135.234375 86.644531 135.703125 C 88.011719 134.949219 89.835938 133.953125 91.214844 133.226562 C 92.6875 132.027344 94.238281 130.980469 95.859375 130.101562 C 96.226562 129.796875 96.75 129.421875 97.164062 129.1875 C 95.910156 129.65625 94.246094 130.296875 93.007812 130.796875 C 90.980469 131.773438 89.039062 132.914062 87.191406 134.207031 " fill-opacity="1" fill-rule="nonzero"/><path fill="#69a2cd" d="M 83.761719 135.339844 C 83.160156 135.832031 82.371094 136.507812 81.835938 137.066406 C 83.167969 136.265625 84.960938 135.214844 86.320312 134.453125 C 88.25 133.140625 90.273438 131.972656 92.390625 130.972656 C 93.105469 130.613281 94.070312 130.160156 94.8125 129.855469 C 93.535156 130.359375 91.835938 131.050781 90.574219 131.601562 C 88.207031 132.691406 85.929688 133.941406 83.761719 135.339844 " fill-opacity="1" fill-rule="nonzero"/><path fill="#69a2cd" d="M 83.339844 135.542969 C 84.597656 134.734375 85.890625 133.976562 87.214844 133.265625 C 85.355469 134.34375 82.902344 135.820312 81.109375 137.003906 L 80.796875 137.222656 C 81.558594 136.714844 82.566406 136.03125 83.339844 135.542969 " fill-opacity="1" fill-rule="nonzero"/><path fill="#3a6ab9" d="M 137.390625 138.199219 C 139.382812 138.890625 142.03125 139.8125 144.015625 140.511719 C 145.285156 139.480469 146.972656 138.097656 148.226562 137.042969 C 147.261719 135.171875 146.253906 133.429688 145.214844 131.828125 C 143.40625 131.269531 140.992188 130.527344 139.183594 129.976562 C 138.105469 130.847656 136.664062 132.003906 135.574219 132.851562 C 136.1875 134.503906 136.796875 136.285156 137.390625 138.199219 " fill-opacity="1" fill-rule="nonzero"/><path fill="#274082" d="M 106.261719 146.605469 C 108.050781 147.28125 110.441406 148.179688 112.238281 148.84375 C 113.753906 147.726562 115.773438 146.238281 117.285156 145.113281 C 116.78125 143.191406 116.277344 141.394531 115.773438 139.734375 C 114.171875 139.199219 112.039062 138.480469 110.4375 137.9375 C 109.097656 138.878906 107.308594 140.128906 105.964844 141.058594 C 106.035156 142.777344 106.132812 144.632812 106.261719 146.605469 " fill-opacity="1" fill-rule="nonzero"/><path fill="#3881b6" d="M 92.941406 148.734375 C 94.433594 149.417969 96.429688 150.316406 97.933594 150.972656 C 99.589844 149.785156 101.800781 148.203125 103.464844 147.019531 C 103.433594 145.035156 103.433594 143.164062 103.476562 141.429688 C 102.167969 140.898438 100.425781 140.179688 99.128906 139.621094 C 97.621094 140.617188 95.609375 141.949219 94.105469 142.953125 C 93.652344 144.757812 93.265625 146.691406 92.941406 148.734375 " fill-opacity="1" fill-rule="nonzero"/><path fill="#3a6ab9" d="M 81.023438 151.019531 C 82.121094 151.730469 83.609375 152.660156 84.742188 153.320312 C 86.421875 152.074219 88.664062 150.417969 90.359375 149.195312 C 90.773438 147.132812 91.257812 145.183594 91.808594 143.363281 C 90.863281 142.820312 89.609375 142.074219 88.695312 141.480469 C 87.128906 142.519531 85.050781 143.921875 83.5 144.988281 C 82.578125 146.882812 81.75 148.894531 81.023438 151.019531 " fill-opacity="1" fill-rule="nonzero"/><path fill="#689ac5" d="M 71.371094 153.3125 C 71.996094 154.070312 72.863281 155.054688 73.566406 155.738281 C 75.132812 154.449219 77.238281 152.746094 78.835938 151.492188 C 79.636719 149.351562 80.546875 147.320312 81.554688 145.410156 C 81.011719 144.832031 80.3125 144.039062 79.859375 143.390625 C 78.363281 144.46875 76.378906 145.917969 74.910156 147.03125 C 73.609375 149.011719 72.425781 151.113281 71.371094 153.3125 " fill-opacity="1" fill-rule="nonzero"/><path fill="#689ac5" d="M 65.011719 155.414062 C 65.042969 156.21875 65.148438 157.292969 65.34375 158.070312 C 66.644531 156.757812 68.402344 155.027344 69.753906 153.769531 C 70.867188 151.554688 72.109375 149.4375 73.46875 147.4375 C 73.371094 146.785156 73.296875 145.894531 73.355469 145.234375 C 72.105469 146.3125 70.449219 147.769531 69.246094 148.898438 C 67.699219 150.96875 66.28125 153.140625 65.011719 155.414062 " fill-opacity="1" fill-rule="nonzero"/><path fill="#274082" d="M 61.328125 159.972656 C 62.160156 158.691406 63.308594 157.003906 64.230469 155.785156 C 65.527344 153.5 66.972656 151.3125 68.550781 149.230469 C 69 148.457031 69.640625 147.449219 70.179688 146.738281 L 69.316406 147.71875 L 67.296875 150.230469 C 63.734375 155.285156 63.667969 155.378906 62.117188 158.21875 L 62.117188 158.226562 C 61.878906 158.75 61.523438 159.433594 61.328125 159.972656 " fill-opacity="1" fill-rule="nonzero"/><path fill="#69a2cd" d="M 125.941406 169.65625 C 128.214844 170.632812 131.238281 171.945312 133.496094 172.945312 C 135.277344 171.53125 137.644531 169.644531 139.417969 168.222656 C 138.839844 165.566406 138.191406 163 137.488281 160.535156 C 135.277344 159.625 132.320312 158.425781 130.097656 157.542969 C 128.410156 158.859375 126.160156 160.609375 124.46875 161.917969 C 124.984375 164.40625 125.476562 166.988281 125.941406 169.65625 " fill-opacity="1" fill-rule="nonzero"/><path fill="#4186b9" d="M 108.703125 171.941406 C 110.929688 172.871094 113.894531 174.117188 116.117188 175.054688 C 118.003906 173.5625 120.523438 171.570312 122.414062 170.085938 C 121.976562 167.414062 121.523438 164.828125 121.058594 162.332031 C 118.902344 161.484375 116.027344 160.355469 113.871094 159.511719 C 112.050781 160.890625 109.625 162.738281 107.808594 164.125 C 108.082031 166.644531 108.378906 169.253906 108.703125 171.941406 " fill-opacity="1" fill-rule="nonzero"/><path fill="#69a2cd" d="M 77.308594 177.429688 C 79.058594 178.339844 81.402344 179.542969 83.171875 180.417969 C 84.882812 178.824219 87.179688 176.714844 88.925781 175.160156 C 88.761719 172.445312 88.6875 169.800781 88.699219 167.238281 C 87.015625 166.4375 84.78125 165.355469 83.117188 164.519531 C 81.410156 165.976562 79.144531 167.933594 77.472656 169.429688 C 77.300781 172.027344 77.242188 174.699219 77.308594 177.429688 " fill-opacity="1" fill-rule="nonzero"/><path fill="#3881b6" d="M 65.304688 180.285156 C 66.628906 181.21875 68.417969 182.441406 69.785156 183.316406 C 71.199219 181.707031 73.113281 179.578125 74.589844 178.019531 C 74.546875 175.28125 74.632812 172.605469 74.84375 170 C 73.5625 169.191406 71.859375 168.089844 70.617188 167.222656 C 69.171875 168.691406 67.261719 170.667969 65.871094 172.1875 C 65.53125 174.824219 65.335938 177.527344 65.304688 180.285156 " fill-opacity="1" fill-rule="nonzero"/><path fill="#3881b6" d="M 57.390625 182.898438 C 58.105469 183.898438 59.109375 185.199219 59.933594 186.109375 C 60.894531 184.503906 62.226562 182.390625 63.292969 180.851562 C 63.34375 178.09375 63.558594 175.382812 63.929688 172.738281 C 63.136719 171.902344 62.109375 170.757812 61.421875 169.832031 C 60.421875 171.269531 59.125 173.210938 58.226562 174.714844 C 57.773438 177.390625 57.492188 180.121094 57.390625 182.898438 " fill-opacity="1" fill-rule="nonzero"/><g clip-path="url(#fb8af6bea8)"><path fill="#69a2cd" d="M 54.703125 184.890625 C 54.757812 185.945312 54.902344 187.355469 55.121094 188.390625 C 55.449219 186.867188 55.945312 184.84375 56.417969 183.359375 C 56.527344 180.578125 56.820312 177.839844 57.289062 175.164062 C 57.113281 174.210938 56.941406 172.925781 56.929688 171.960938 C 56.519531 173.226562 55.992188 174.929688 55.703125 176.230469 L 55.695312 176.257812 C 55.425781 178.09375 55.039062 180.546875 54.859375 182.398438 L 54.703125 184.890625 " fill-opacity="1" fill-rule="nonzero"/></g><path fill="#69a2cd" d="M 112.96875 201.804688 C 115.105469 202.707031 117.953125 203.917969 120.082031 204.835938 C 121.921875 203.382812 124.375 201.453125 126.226562 200.015625 C 125.984375 197.332031 125.707031 194.59375 125.394531 191.808594 C 123.167969 190.8125 120.195312 189.492188 117.960938 188.507812 C 116.070312 190.046875 113.554688 192.109375 111.679688 193.664062 C 112.101562 196.433594 112.53125 199.152344 112.96875 201.804688 " fill-opacity="1" fill-rule="nonzero"/><path fill="#274082" d="M 136.492188 190.886719 C 138.628906 191.742188 141.476562 192.886719 143.617188 193.738281 C 145.265625 192.253906 147.476562 190.285156 149.152344 188.828125 C 148.664062 186.175781 148.195312 183.464844 147.742188 180.699219 C 145.527344 179.765625 142.578125 178.519531 140.367188 177.578125 C 138.640625 179.140625 136.347656 181.238281 134.644531 182.832031 C 135.203125 185.582031 135.820312 188.269531 136.492188 190.886719 " fill-opacity="1" fill-rule="nonzero"/><path fill="#69a2cd" d="M 82.609375 207.117188 C 84.613281 207.945312 87.289062 209.039062 89.300781 209.847656 C 90.644531 208.351562 92.457031 206.375 93.84375 204.921875 C 93.128906 202.308594 92.476562 199.628906 91.890625 196.886719 C 89.824219 195.992188 87.066406 194.789062 85.007812 193.871094 C 83.566406 195.4375 81.664062 197.546875 80.269531 199.15625 C 80.949219 201.878906 81.734375 204.535156 82.609375 207.117188 " fill-opacity="1" fill-rule="nonzero"/><path fill="#3881b6" d="M 71.003906 209.875 C 72.730469 210.695312 75.042969 211.777344 76.792969 212.554688 C 77.714844 211.074219 78.980469 209.113281 79.980469 207.683594 C 79.066406 205.113281 78.25 202.460938 77.550781 199.746094 C 75.761719 198.871094 73.382812 197.691406 71.617188 196.773438 C 70.578125 198.320312 69.21875 200.40625 68.261719 202.011719 C 69.039062 204.710938 69.957031 207.335938 71.003906 209.875 " fill-opacity="1" fill-rule="nonzero"/><path fill="#69a2cd" d="M 63.351562 212.402344 C 64.601562 213.265625 66.289062 214.382812 67.589844 215.164062 C 67.96875 213.726562 68.539062 211.820312 69.058594 210.425781 C 67.984375 207.894531 67.042969 205.273438 66.25 202.582031 C 64.882812 201.710938 63.074219 200.523438 61.765625 199.566406 C 61.277344 201.066406 60.679688 203.085938 60.347656 204.628906 C 61.1875 207.304688 62.195312 209.902344 63.351562 212.402344 " fill-opacity="1" fill-rule="nonzero"/><path fill="#69a2cd" d="M 60.753906 214.328125 C 61.410156 215.253906 62.332031 216.453125 63.09375 217.296875 C 62.820312 215.972656 62.523438 214.195312 62.414062 212.851562 C 61.242188 210.355469 60.222656 207.761719 59.375 205.089844 C 58.601562 204.152344 57.605469 202.867188 56.949219 201.84375 C 57.09375 203.285156 57.347656 205.203125 57.65625 206.617188 C 58.519531 209.28125 59.554688 211.855469 60.753906 214.328125 " fill-opacity="1" fill-rule="nonzero"/><path fill="#3881b6" d="M 130.132812 225.679688 C 131.453125 226.429688 133.207031 227.4375 134.5 228.234375 C 136.085938 227.15625 138.203125 225.71875 139.796875 224.652344 C 140.320312 222.507812 140.777344 220.257812 141.164062 217.917969 C 139.644531 216.992188 137.605469 215.78125 136.054688 214.90625 C 134.328125 216.148438 132.03125 217.816406 130.3125 219.074219 C 130.292969 221.375 130.234375 223.582031 130.132812 225.679688 " fill-opacity="1" fill-rule="nonzero"/><path fill="#274082" d="M 117.773438 227.316406 C 119.347656 228 121.441406 228.917969 123.003906 229.628906 C 124.375 228.527344 126.210938 227.066406 127.605469 225.988281 C 127.59375 223.902344 127.550781 221.707031 127.472656 219.417969 C 125.699219 218.582031 123.320312 217.476562 121.53125 216.667969 C 119.992188 217.929688 117.949219 219.621094 116.433594 220.910156 C 116.882812 223.152344 117.332031 225.289062 117.773438 227.316406 " fill-opacity="1" fill-rule="nonzero"/><path fill="#3881b6" d="M 105.894531 229.21875 C 107.628906 229.84375 109.9375 230.679688 111.664062 231.316406 C 112.734375 230.210938 114.171875 228.753906 115.28125 227.691406 C 114.726562 225.679688 114.175781 223.554688 113.632812 221.328125 C 111.707031 220.5625 109.140625 219.550781 107.207031 218.800781 C 105.957031 220.054688 104.300781 221.746094 103.09375 223.046875 C 103.992188 225.210938 104.929688 227.273438 105.894531 229.21875 " fill-opacity="1" fill-rule="nonzero"/><path fill="#3881b6" d="M 86.65625 233.300781 C 88.363281 233.847656 90.640625 234.566406 92.351562 235.097656 C 92.589844 234.054688 92.960938 232.683594 93.3125 231.675781 C 91.796875 229.839844 90.34375 227.878906 88.964844 225.804688 C 87.117188 225.144531 84.652344 224.253906 82.808594 223.574219 C 82.367188 224.773438 81.8125 226.390625 81.492188 227.628906 C 83.121094 229.640625 84.847656 231.535156 86.65625 233.300781 " fill-opacity="1" fill-rule="nonzero"/><path fill="#69a2cd" d="M 80.984375 235.175781 C 82.433594 235.726562 84.371094 236.441406 85.835938 236.945312 C 85.585938 235.988281 85.3125 234.691406 85.214844 233.707031 C 83.34375 231.960938 81.558594 230.085938 79.871094 228.089844 C 78.273438 227.457031 76.152344 226.59375 74.574219 225.910156 C 74.671875 227.0625 74.859375 228.605469 75.121094 229.734375 C 76.964844 231.675781 78.925781 233.492188 80.984375 235.175781 " fill-opacity="1" fill-rule="nonzero"/><path fill="#69a2cd" d="M 79.054688 236.601562 C 80.121094 237.183594 81.554688 237.933594 82.652344 238.453125 C 81.902344 237.601562 80.933594 236.4375 80.289062 235.507812 C 78.199219 233.839844 76.210938 232.035156 74.339844 230.105469 C 73.1875 229.449219 71.660156 228.546875 70.554688 227.8125 C 71.226562 228.902344 72.171875 230.328125 72.957031 231.335938 C 74.875 233.226562 76.910156 234.984375 79.054688 236.601562 " fill-opacity="1" fill-rule="nonzero"/><path fill="#274082" d="M 125.199219 237.703125 C 125.867188 238.042969 126.75 238.507812 127.390625 238.894531 C 127.984375 238.351562 128.792969 237.644531 129.414062 237.136719 C 129.640625 236.023438 129.835938 234.75 129.996094 233.328125 C 129.054688 232.769531 127.785156 232.042969 126.816406 231.53125 C 125.972656 232.296875 124.859375 233.328125 124.050781 234.132812 C 124.445312 235.476562 124.832031 236.675781 125.199219 237.703125 " fill-opacity="1" fill-rule="nonzero"/><path fill="#69a2cd" d="M 116.3125 242.839844 C 117.503906 243.074219 119.089844 243.386719 120.28125 243.625 C 120.101562 243.203125 119.921875 242.601562 119.882812 242.144531 C 118.652344 241.25 117.4375 240.191406 116.234375 238.976562 C 114.8125 238.558594 112.910156 238.007812 111.484375 237.597656 C 111.347656 238.300781 111.203125 239.246094 111.199219 239.960938 C 112.871094 241.082031 114.578125 242.046875 116.3125 242.839844 " fill-opacity="1" fill-rule="nonzero"/><path fill="#3881b6" d="M 106.457031 247.535156 C 107.820312 247.683594 109.636719 247.875 111 248 C 110.167969 247.707031 109.066406 247.292969 108.273438 246.90625 C 105.933594 246.261719 103.632812 245.441406 101.390625 244.457031 C 99.890625 244.148438 97.894531 243.726562 96.402344 243.394531 C 97.097656 244.019531 98.058594 244.816406 98.832031 245.347656 C 101.316406 246.246094 103.863281 246.980469 106.457031 247.535156 " fill-opacity="1" fill-rule="nonzero"/><path fill="#274082" d="M 105.632812 248.144531 C 106.894531 248.28125 108.582031 248.445312 109.847656 248.542969 C 108.734375 248.3125 107.257812 247.980469 106.160156 247.675781 C 103.523438 247.140625 100.933594 246.425781 98.410156 245.546875 C 97.097656 245.25 95.351562 244.839844 94.050781 244.507812 C 95.117188 245.050781 96.558594 245.742188 97.664062 246.210938 C 100.257812 247.027344 102.917969 247.675781 105.632812 248.144531 " fill-opacity="1" fill-rule="nonzero"/><g clip-path="url(#73797c49dd)"><path fill="#69a2cd" d="M 111.175781 249.121094 L 110.445312 249.058594 L 110.957031 249.101562 L 111.175781 249.121094 " fill-opacity="1" fill-rule="nonzero"/></g><path fill="#3881b6" d="M 122.132812 135.082031 C 123.902344 135.597656 126.265625 136.292969 128.03125 136.824219 C 128.75 136.097656 129.695312 135.117188 130.355469 134.339844 C 128.988281 132.996094 127.582031 131.804688 126.140625 130.773438 C 124.597656 130.410156 122.546875 129.9375 121.003906 129.59375 C 120.523438 130.152344 119.859375 130.871094 119.339844 131.386719 C 120.285156 132.460938 121.21875 133.695312 122.132812 135.082031 " fill-opacity="1" fill-rule="nonzero"/><path fill="#274082" d="M 111.242188 136.371094 C 112.796875 136.878906 114.875 137.558594 116.4375 138.0625 C 117.492188 137.246094 118.894531 136.152344 119.929688 135.316406 C 119.136719 133.917969 118.332031 132.671875 117.519531 131.582031 C 116.195312 131.238281 114.433594 130.78125 113.113281 130.4375 C 112.28125 131.050781 111.171875 131.859375 110.328125 132.453125 C 110.617188 133.605469 110.921875 134.914062 111.242188 136.371094 " fill-opacity="1" fill-rule="nonzero"/><path fill="#69a2cd" d="M 100.433594 137.949219 C 101.691406 138.472656 103.375 139.160156 104.640625 139.65625 C 105.949219 138.765625 107.695312 137.574219 109 136.675781 C 108.804688 135.203125 108.628906 133.875 108.476562 132.707031 C 107.457031 132.359375 106.097656 131.890625 105.085938 131.523438 C 103.976562 132.195312 102.5 133.089844 101.390625 133.761719 C 101.027344 135.007812 100.707031 136.410156 100.433594 137.949219 " fill-opacity="1" fill-rule="nonzero"/><path fill="#3881b6" d="M 90.398438 139.707031 C 91.28125 140.265625 92.472656 140.984375 93.382812 141.492188 C 94.855469 140.53125 96.820312 139.25 98.296875 138.300781 C 98.6875 136.738281 99.128906 135.316406 99.621094 134.046875 C 98.953125 133.683594 98.066406 133.1875 97.425781 132.773438 C 96.121094 133.5 94.386719 134.472656 93.089844 135.214844 C 92.121094 136.566406 91.222656 138.070312 90.398438 139.707031 " fill-opacity="1" fill-rule="nonzero"/><path fill="#3a6ab9" d="M 81.8125 141.527344 C 82.253906 142.132812 82.882812 142.90625 83.402344 143.445312 C 84.925781 142.425781 86.964844 141.074219 88.503906 140.078125 C 89.429688 138.421875 90.4375 136.898438 91.519531 135.519531 C 91.21875 135.121094 90.832031 134.5625 90.636719 134.101562 C 89.234375 134.875 87.375 135.917969 85.988281 136.71875 C 84.503906 138.183594 83.109375 139.789062 81.8125 141.527344 " fill-opacity="1" fill-rule="nonzero"/><path fill="#3881b6" d="M 75.375 143.296875 C 75.328125 143.921875 75.328125 144.773438 75.429688 145.394531 C 76.878906 144.328125 78.824219 142.921875 80.300781 141.898438 C 81.675781 140.140625 83.15625 138.511719 84.734375 137.023438 C 84.824219 136.53125 84.996094 135.878906 85.210938 135.425781 C 83.835938 136.234375 82.011719 137.332031 80.660156 138.179688 C 78.785156 139.753906 77.019531 141.460938 75.375 143.296875 " fill-opacity="1" fill-rule="nonzero"/><path fill="#3a6ab9" d="M 72.027344 144.765625 C 71.5 145.453125 70.820312 146.394531 70.382812 147.148438 C 71.570312 146.070312 73.175781 144.652344 74.414062 143.628906 C 76.113281 141.777344 77.933594 140.050781 79.867188 138.457031 C 80.414062 137.878906 81.171875 137.132812 81.777344 136.621094 C 80.597656 137.429688 79.035156 138.535156 77.894531 139.398438 C 75.820312 141.058594 73.859375 142.851562 72.027344 144.765625 " fill-opacity="1" fill-rule="nonzero"/><path fill="#3881b6" d="M 131.011719 155.273438 C 133.214844 156.140625 136.152344 157.308594 138.347656 158.199219 C 139.765625 157.015625 141.644531 155.417969 143.023438 154.191406 C 142.082031 151.902344 141.066406 149.730469 139.980469 147.675781 C 137.917969 146.894531 135.15625 145.871094 133.074219 145.125 C 131.796875 146.203125 130.085938 147.632812 128.789062 148.6875 C 129.5625 150.765625 130.308594 152.964844 131.011719 155.273438 " fill-opacity="1" fill-rule="nonzero"/><g clip-path="url(#4e3492aeab)"><path fill="#274082" d="M 154.996094 136.664062 C 157.136719 137.488281 159.992188 138.589844 162.128906 139.421875 C 163.800781 138.136719 166.03125 136.414062 167.699219 135.121094 C 167.0625 132.804688 166.390625 130.597656 165.695312 128.507812 C 163.683594 127.789062 161.003906 126.832031 158.992188 126.121094 C 157.453125 127.273438 155.402344 128.804688 153.859375 129.949219 C 154.234375 132.074219 154.613281 134.316406 154.996094 136.664062 " fill-opacity="1" fill-rule="nonzero"/></g><path fill="#69a2cd" d="M 99.296875 159.46875 C 101.25 160.273438 103.855469 161.34375 105.8125 162.140625 C 107.613281 160.777344 110.011719 158.960938 111.816406 157.605469 C 111.496094 155.25 111.191406 152.996094 110.902344 150.855469 C 109.085938 150.167969 106.664062 149.246094 104.851562 148.542969 C 103.164062 149.757812 100.917969 151.375 99.238281 152.59375 C 99.210938 154.78125 99.230469 157.078125 99.296875 159.46875 " fill-opacity="1" fill-rule="nonzero"/><path fill="#4186b9" d="M 84.628906 162.035156 C 86.28125 162.847656 88.488281 163.914062 90.15625 164.695312 C 91.953125 163.269531 94.359375 161.378906 96.171875 159.976562 C 96.167969 157.578125 96.21875 155.269531 96.328125 153.070312 C 94.804688 152.390625 92.777344 151.472656 91.265625 150.757812 C 89.550781 152.019531 87.269531 153.707031 85.574219 154.988281 C 85.167969 157.238281 84.855469 159.59375 84.628906 162.035156 " fill-opacity="1" fill-rule="nonzero"/><path fill="#274082" d="M 72.085938 164.695312 C 73.324219 165.535156 74.996094 166.628906 76.273438 167.410156 C 77.933594 165.945312 80.164062 164.003906 81.859375 162.578125 C 82.136719 160.125 82.515625 157.757812 82.992188 155.492188 C 81.847656 154.800781 80.328125 153.859375 79.222656 153.113281 C 77.605469 154.40625 75.46875 156.136719 73.882812 157.464844 C 73.160156 159.785156 72.558594 162.199219 72.085938 164.695312 " fill-opacity="1" fill-rule="nonzero"/><path fill="#274082" d="M 62.671875 167.28125 C 63.386719 168.167969 64.382812 169.316406 65.1875 170.121094 C 66.570312 168.632812 68.433594 166.671875 69.871094 165.234375 C 70.390625 162.730469 71.042969 160.304688 71.820312 157.96875 C 71.125 157.246094 70.214844 156.261719 69.605469 155.464844 C 68.234375 156.765625 66.425781 158.519531 65.113281 159.875 C 64.152344 162.257812 63.335938 164.734375 62.671875 167.28125 " fill-opacity="1" fill-rule="nonzero"/><path fill="#69a2cd" d="M 57.785156 169.429688 C 57.832031 170.375 57.957031 171.636719 58.167969 172.558594 C 59.054688 171.09375 60.28125 169.167969 61.269531 167.769531 C 61.960938 165.210938 62.808594 162.726562 63.804688 160.328125 C 63.652344 159.515625 63.503906 158.410156 63.511719 157.582031 C 62.589844 158.84375 61.390625 160.554688 60.558594 161.878906 C 59.472656 164.316406 58.542969 166.839844 57.785156 169.429688 " fill-opacity="1" fill-rule="nonzero"/><path fill="#3a6ab9" d="M 158.984375 171.621094 C 161.121094 172.6875 163.96875 174.121094 166.085938 175.21875 C 167.910156 173.800781 170.332031 171.890625 172.125 170.4375 C 171.984375 169.011719 171.816406 167.582031 171.621094 166.148438 C 171.425781 164.710938 171.203125 163.296875 170.957031 161.902344 C 168.8125 160.796875 165.945312 159.351562 163.769531 158.308594 C 161.984375 159.746094 159.605469 161.65625 157.816406 163.085938 C 158.039062 164.484375 158.253906 165.902344 158.449219 167.335938 C 158.644531 168.769531 158.824219 170.199219 158.984375 171.621094 " fill-opacity="1" fill-rule="nonzero"/><path fill="#3a6ab9" d="M 102.046875 188.386719 C 104.269531 189.339844 107.234375 190.609375 109.460938 191.558594 C 111.339844 189.988281 113.851562 187.902344 115.738281 186.347656 C 115.546875 184.929688 115.351562 183.5 115.152344 182.066406 C 114.957031 180.632812 114.761719 179.214844 114.570312 177.8125 C 112.34375 176.859375 109.375 175.59375 107.144531 174.652344 C 105.257812 176.199219 102.746094 178.277344 100.878906 179.851562 C 101.046875 181.257812 101.230469 182.679688 101.429688 184.113281 C 101.625 185.546875 101.832031 186.972656 102.046875 188.386719 " fill-opacity="1" fill-rule="nonzero"/><path fill="#69a2cd" d="M 86.003906 191.195312 C 88.074219 192.125 90.839844 193.351562 92.917969 194.253906 C 94.621094 192.652344 96.902344 190.519531 98.628906 188.945312 C 98.40625 187.53125 98.199219 186.105469 98.003906 184.671875 C 97.804688 183.238281 97.625 181.816406 97.460938 180.410156 C 95.402344 179.496094 92.65625 178.273438 90.601562 177.347656 C 88.859375 178.925781 86.542969 181.042969 84.835938 182.660156 C 84.980469 184.066406 85.152344 185.492188 85.347656 186.925781 C 85.542969 188.359375 85.761719 189.785156 86.003906 191.195312 " fill-opacity="1" fill-rule="nonzero"/><path fill="#689ac5" d="M 72.285156 194.105469 C 74.066406 195.03125 76.449219 196.246094 78.25 197.125 C 79.648438 195.507812 81.53125 193.363281 82.976562 191.789062 C 82.726562 190.378906 82.503906 188.957031 82.308594 187.519531 C 82.113281 186.085938 81.945312 184.664062 81.804688 183.253906 C 80.039062 182.355469 77.683594 181.148438 75.933594 180.214844 C 74.464844 181.800781 72.527344 183.929688 71.117188 185.570312 C 71.238281 186.980469 71.394531 188.40625 71.59375 189.84375 C 71.789062 191.277344 72.019531 192.699219 72.285156 194.105469 " fill-opacity="1" fill-rule="nonzero"/><path fill="#689ac5" d="M 61.992188 196.929688 C 63.332031 197.882812 65.144531 199.117188 66.539062 199.988281 C 67.5 198.378906 68.816406 196.25 69.863281 194.695312 C 69.59375 193.289062 69.363281 191.871094 69.164062 190.4375 C 68.96875 189 68.8125 187.574219 68.695312 186.160156 C 67.335938 185.261719 65.539062 184.039062 64.222656 183.078125 C 63.160156 184.648438 61.78125 186.761719 60.820312 188.394531 C 60.925781 189.816406 61.078125 191.242188 61.273438 192.679688 C 61.46875 194.113281 61.710938 195.53125 61.992188 196.929688 " fill-opacity="1" fill-rule="nonzero"/><path fill="#274082" d="M 56.644531 199.28125 C 57.335938 200.304688 58.3125 201.632812 59.121094 202.566406 C 59.457031 201.019531 59.96875 198.96875 60.457031 197.464844 C 60.171875 196.066406 59.933594 194.648438 59.734375 193.214844 C 59.539062 191.777344 59.390625 190.347656 59.289062 188.929688 C 58.496094 187.984375 57.476562 186.691406 56.804688 185.65625 C 56.34375 187.167969 55.78125 189.199219 55.476562 190.746094 C 55.570312 192.167969 55.71875 193.597656 55.914062 195.035156 C 56.109375 196.46875 56.355469 197.886719 56.644531 199.28125 " fill-opacity="1" fill-rule="nonzero"/><g clip-path="url(#879fbd098e)"><path fill="#69a2cd" d="M 161.550781 203.675781 C 163.125 204.585938 165.210938 205.8125 166.753906 206.769531 C 168.554688 205.546875 170.953125 203.90625 172.746094 202.667969 C 173.207031 200.179688 173.578125 197.613281 173.847656 194.988281 C 172.152344 193.914062 169.878906 192.511719 168.144531 191.503906 C 166.25 192.875 163.722656 194.699219 161.832031 196.074219 C 161.800781 198.675781 161.707031 201.21875 161.550781 203.675781 " fill-opacity="1" fill-rule="nonzero"/></g><path fill="#689ac5" d="M 144.625 209.1875 C 146.441406 210.023438 148.863281 211.148438 150.664062 212.015625 C 152.398438 210.730469 154.714844 209.019531 156.457031 207.75 C 156.53125 205.296875 156.550781 202.765625 156.519531 200.167969 C 154.542969 199.199219 151.90625 197.917969 149.917969 196.976562 C 148.082031 198.390625 145.640625 200.28125 143.816406 201.710938 C 144.105469 204.28125 144.375 206.777344 144.625 209.1875 " fill-opacity="1" fill-rule="nonzero"/><path fill="#3a6ab9" d="M 108.019531 216.699219 C 109.980469 217.472656 112.589844 218.511719 114.542969 219.300781 C 116.074219 217.988281 118.128906 216.246094 119.6875 214.960938 C 119.351562 212.558594 119.007812 210.074219 118.65625 207.515625 C 116.546875 206.625 113.738281 205.4375 111.625 204.558594 C 109.96875 205.992188 107.765625 207.917969 106.136719 209.382812 C 106.738281 211.902344 107.371094 214.347656 108.019531 216.699219 " fill-opacity="1" fill-rule="nonzero"/><path fill="#3881b6" d="M 94.355469 219.089844 C 96.335938 219.820312 98.976562 220.789062 100.960938 221.515625 C 102.1875 220.195312 103.839844 218.453125 105.109375 217.175781 C 104.378906 214.832031 103.675781 212.402344 103.011719 209.890625 C 100.898438 209.058594 98.078125 207.949219 95.96875 207.109375 C 94.597656 208.542969 92.789062 210.472656 91.46875 211.945312 C 92.363281 214.417969 93.328125 216.804688 94.355469 219.089844 " fill-opacity="1" fill-rule="nonzero"/><path fill="#3881b6" d="M 82.664062 221.570312 C 84.535156 222.269531 87.035156 223.191406 88.914062 223.875 C 89.738281 222.570312 90.871094 220.851562 91.773438 219.59375 C 90.675781 217.320312 89.648438 214.949219 88.695312 212.488281 C 86.710938 211.699219 84.0625 210.636719 82.082031 209.828125 C 81.101562 211.238281 79.820312 213.140625 78.921875 214.609375 C 80.070312 217.023438 81.320312 219.351562 82.664062 221.570312 " fill-opacity="1" fill-rule="nonzero"/><path fill="#69a2cd" d="M 69.339844 225.980469 C 70.480469 226.71875 72.019531 227.675781 73.203125 228.34375 C 72.949219 227.183594 72.675781 225.617188 72.585938 224.433594 C 70.96875 222.292969 69.46875 220.035156 68.105469 217.679688 C 66.847656 216.902344 65.183594 215.839844 63.976562 214.976562 C 64.101562 216.296875 64.332031 218.050781 64.621094 219.34375 C 66.054688 221.664062 67.628906 223.882812 69.339844 225.980469 " fill-opacity="1" fill-rule="nonzero"/><path fill="#3881b6" d="M 71.441406 229.925781 C 70.652344 228.878906 69.636719 227.445312 68.964844 226.320312 C 67.246094 224.230469 65.660156 222.019531 64.21875 219.707031 C 63.492188 218.871094 62.558594 217.722656 61.941406 216.804688 L 62.4375 217.746094 L 62.578125 217.992188 C 65.925781 223.429688 65.925781 223.429688 67.933594 225.964844 L 70.316406 228.796875 L 71.441406 229.925781 " fill-opacity="1" fill-rule="nonzero"/><path fill="#69a2cd" d="M 100.253906 240.871094 C 101.808594 241.265625 103.882812 241.789062 105.441406 242.175781 C 105.488281 241.421875 105.613281 240.410156 105.789062 239.671875 C 104.324219 238.285156 102.898438 236.75 101.515625 235.082031 C 99.773438 234.539062 97.449219 233.8125 95.703125 233.265625 C 95.394531 234.230469 95.019531 235.535156 94.828125 236.53125 C 96.578125 238.121094 98.390625 239.570312 100.253906 240.871094 " fill-opacity="1" fill-rule="nonzero"/><path fill="#689ac5" d="M 94.925781 242.335938 C 96.453125 242.695312 98.488281 243.164062 100.015625 243.503906 C 99.660156 242.832031 99.226562 241.90625 99 241.179688 C 97.046875 239.898438 95.144531 238.46875 93.3125 236.902344 C 91.636719 236.402344 89.40625 235.730469 87.734375 235.214844 C 87.867188 236.152344 88.105469 237.398438 88.386719 238.300781 C 90.488281 239.792969 92.671875 241.140625 94.925781 242.335938 " fill-opacity="1" fill-rule="nonzero"/><path fill="#69a2cd" d="M 92.160156 243.550781 C 93.480469 243.914062 95.25 244.375 96.582031 244.695312 C 95.816406 244.109375 94.816406 243.292969 94.132812 242.613281 C 91.820312 241.4375 89.582031 240.109375 87.425781 238.632812 C 86 238.152344 84.097656 237.496094 82.6875 236.96875 C 83.351562 237.84375 84.277344 238.980469 85.042969 239.773438 C 87.328125 241.183594 89.703125 242.445312 92.160156 243.550781 " fill-opacity="1" fill-rule="nonzero"/><path fill="#689ac5" d="M 92.09375 244.414062 C 93.132812 244.789062 94.527344 245.269531 95.585938 245.589844 C 94.476562 245.074219 93.003906 244.355469 91.933594 243.757812 C 89.460938 242.667969 87.066406 241.417969 84.765625 240.019531 C 83.691406 239.527344 82.265625 238.839844 81.222656 238.28125 C 82.25 239.019531 83.628906 239.988281 84.699219 240.65625 L 86.289062 241.574219 C 88.167969 242.621094 90.105469 243.570312 92.09375 244.414062 " fill-opacity="1" fill-rule="nonzero"/><path stroke-linecap="butt" transform="matrix(0, 0.75, -0.75, 0, 187.499992, 127.499992)" fill="none" stroke-linejoin="miter" d="M 0.0000111633 1.99999 L 160.000022 1.99999 " stroke="#00367d" stroke-width="4" stroke-opacity="1" stroke-miterlimit="4"/><g fill="#00367d" fill-opacity="1"><g transform="translate(193.195744, 180.685152)"><g><path d="M 15.234375 0 L 13.859375 -3.71875 L 6.0625 -3.71875 L 4.71875 0 L 0.25 0 L 7.90625 -19.5625 L 11.90625 -19.5625 L 19.8125 0 Z M 9.953125 -14.390625 L 7.40625 -7.40625 L 12.515625 -7.40625 Z M 9.953125 -14.390625 "/></g></g></g><g fill="#00367d" fill-opacity="1"><g transform="translate(213.267843, 180.685152)"><g><path d="M 2.234375 0 L 2.234375 -19.5625 L 6.484375 -19.5625 L 6.484375 0 Z M 2.234375 0 "/></g></g></g><g fill="#00367d" fill-opacity="1"><g transform="translate(221.989981, 180.685152)"><g><path d="M 9.640625 -19.5625 C 11.078125 -19.5625 12.398438 -19.316406 13.609375 -18.828125 C 14.828125 -18.347656 15.875 -17.671875 16.75 -16.796875 C 17.632812 -15.921875 18.320312 -14.890625 18.8125 -13.703125 C 19.3125 -12.523438 19.5625 -11.226562 19.5625 -9.8125 C 19.5625 -8.394531 19.3125 -7.085938 18.8125 -5.890625 C 18.320312 -4.703125 17.632812 -3.664062 16.75 -2.78125 C 15.875 -1.894531 14.828125 -1.207031 13.609375 -0.71875 C 12.398438 -0.238281 11.078125 0 9.640625 0 L 2.234375 0 L 2.234375 -19.5625 Z M 9.53125 -3.9375 C 10.644531 -3.9375 11.628906 -4.1875 12.484375 -4.6875 C 13.347656 -5.195312 14.019531 -5.894531 14.5 -6.78125 C 14.988281 -7.664062 15.234375 -8.675781 15.234375 -9.8125 C 15.234375 -10.945312 14.988281 -11.953125 14.5 -12.828125 C 14.019531 -13.703125 13.347656 -14.382812 12.484375 -14.875 C 11.628906 -15.375 10.644531 -15.625 9.53125 -15.625 L 6.484375 -15.625 L 6.484375 -3.9375 Z M 9.53125 -3.9375 "/></g></g></g><g fill="#00367d" fill-opacity="1"><g transform="translate(193.195744, 208.992973)"><g><path d="M 11.203125 0.421875 C 9.773438 0.421875 8.441406 0.164062 7.203125 -0.34375 C 5.972656 -0.863281 4.898438 -1.582031 3.984375 -2.5 C 3.078125 -3.425781 2.375 -4.507812 1.875 -5.75 C 1.375 -6.988281 1.125 -8.320312 1.125 -9.75 C 1.125 -11.207031 1.375 -12.5625 1.875 -13.8125 C 2.375 -15.0625 3.078125 -16.144531 3.984375 -17.0625 C 4.898438 -17.988281 5.972656 -18.707031 7.203125 -19.21875 C 8.441406 -19.726562 9.773438 -19.984375 11.203125 -19.984375 C 12.785156 -19.984375 14.238281 -19.65625 15.5625 -19 C 16.882812 -18.351562 17.992188 -17.441406 18.890625 -16.265625 C 19.785156 -15.085938 20.382812 -13.726562 20.6875 -12.1875 L 16.4375 -12.1875 C 16.039062 -13.34375 15.375 -14.257812 14.4375 -14.9375 C 13.507812 -15.625 12.429688 -15.96875 11.203125 -15.96875 C 10.109375 -15.96875 9.125 -15.691406 8.25 -15.140625 C 7.375 -14.585938 6.675781 -13.84375 6.15625 -12.90625 C 5.644531 -11.976562 5.390625 -10.925781 5.390625 -9.75 C 5.390625 -8.582031 5.644531 -7.535156 6.15625 -6.609375 C 6.675781 -5.691406 7.375 -4.960938 8.25 -4.421875 C 9.125 -3.878906 10.109375 -3.609375 11.203125 -3.609375 C 12.492188 -3.609375 13.601562 -3.96875 14.53125 -4.6875 C 15.46875 -5.414062 16.113281 -6.40625 16.46875 -7.65625 L 20.734375 -7.65625 C 20.441406 -6.039062 19.851562 -4.625 18.96875 -3.40625 C 18.082031 -2.195312 16.972656 -1.253906 15.640625 -0.578125 C 14.304688 0.0859375 12.828125 0.421875 11.203125 0.421875 Z M 11.203125 0.421875 "/></g></g></g><g fill="#00367d" fill-opacity="1"><g transform="translate(214.749487, 208.992973)"><g><path d="M 2.234375 0 L 2.234375 -19.5625 L 6.484375 -19.5625 L 6.484375 0 Z M 2.234375 0 "/></g></g></g><g fill="#00367d" fill-opacity="1"><g transform="translate(223.471626, 208.992973)"><g><path d="M 13 0 L 9.203125 -6.6875 L 6.484375 -6.6875 L 6.484375 0 L 2.234375 0 L 2.234375 -19.5625 L 10.140625 -19.5625 C 11.453125 -19.5625 12.617188 -19.28125 13.640625 -18.71875 C 14.660156 -18.164062 15.46875 -17.40625 16.0625 -16.4375 C 16.664062 -15.46875 16.96875 -14.347656 16.96875 -13.078125 C 16.96875 -11.816406 16.644531 -10.6875 16 -9.6875 C 15.351562 -8.6875 14.492188 -7.925781 13.421875 -7.40625 L 17.75 0 Z M 6.484375 -15.65625 L 6.484375 -10.59375 L 9.875 -10.59375 C 10.75 -10.59375 11.4375 -10.828125 11.9375 -11.296875 C 12.4375 -11.773438 12.6875 -12.378906 12.6875 -13.109375 C 12.6875 -13.859375 12.4375 -14.46875 11.9375 -14.9375 C 11.4375 -15.414062 10.75 -15.65625 9.875 -15.65625 Z M 6.484375 -15.65625 "/></g></g></g><g fill="#00367d" fill-opacity="1"><g transform="translate(241.950254, 208.992973)"><g><path d="M 11.203125 0.421875 C 9.773438 0.421875 8.441406 0.164062 7.203125 -0.34375 C 5.972656 -0.863281 4.898438 -1.582031 3.984375 -2.5 C 3.078125 -3.425781 2.375 -4.507812 1.875 -5.75 C 1.375 -6.988281 1.125 -8.320312 1.125 -9.75 C 1.125 -11.207031 1.375 -12.5625 1.875 -13.8125 C 2.375 -15.0625 3.078125 -16.144531 3.984375 -17.0625 C 4.898438 -17.988281 5.972656 -18.707031 7.203125 -19.21875 C 8.441406 -19.726562 9.773438 -19.984375 11.203125 -19.984375 C 12.785156 -19.984375 14.238281 -19.65625 15.5625 -19 C 16.882812 -18.351562 17.992188 -17.441406 18.890625 -16.265625 C 19.785156 -15.085938 20.382812 -13.726562 20.6875 -12.1875 L 16.4375 -12.1875 C 16.039062 -13.34375 15.375 -14.257812 14.4375 -14.9375 C 13.507812 -15.625 12.429688 -15.96875 11.203125 -15.96875 C 10.109375 -15.96875 9.125 -15.691406 8.25 -15.140625 C 7.375 -14.585938 6.675781 -13.84375 6.15625 -12.90625 C 5.644531 -11.976562 5.390625 -10.925781 5.390625 -9.75 C 5.390625 -8.582031 5.644531 -7.535156 6.15625 -6.609375 C 6.675781 -5.691406 7.375 -4.960938 8.25 -4.421875 C 9.125 -3.878906 10.109375 -3.609375 11.203125 -3.609375 C 12.492188 -3.609375 13.601562 -3.96875 14.53125 -4.6875 C 15.46875 -5.414062 16.113281 -6.40625 16.46875 -7.65625 L 20.734375 -7.65625 C 20.441406 -6.039062 19.851562 -4.625 18.96875 -3.40625 C 18.082031 -2.195312 16.972656 -1.253906 15.640625 -0.578125 C 14.304688 0.0859375 12.828125 0.421875 11.203125 0.421875 Z M 11.203125 0.421875 "/></g></g></g><g fill="#00367d" fill-opacity="1"><g transform="translate(263.503997, 208.992973)"><g><path d="M 6.484375 -3.9375 L 13.984375 -3.9375 L 13.984375 0 L 2.234375 0 L 2.234375 -19.5625 L 6.484375 -19.5625 Z M 6.484375 -3.9375 "/></g></g></g><g fill="#00367d" fill-opacity="1"><g transform="translate(278.096802, 208.992973)"><g><path d="M 6.484375 -3.9375 L 14.28125 -3.9375 L 14.28125 0 L 2.234375 0 L 2.234375 -19.5625 L 13.984375 -19.5625 L 13.984375 -15.65625 L 6.484375 -15.65625 L 6.484375 -11.796875 L 13.25 -11.796875 L 13.25 -7.96875 L 6.484375 -7.96875 Z M 6.484375 -3.9375 "/></g></g></g></svg>