<?xml version="1.0" encoding="UTF-8"?>
<svg version="1.1" xmlns="http://www.w3.org/2000/svg" width="500" height="500">
<path d="M0 0 C0.33 -0.33 0.66 -0.66 1 -1 C7.46153846 -1.35897436 7.46153846 -1.35897436 11 1 C11 1.99 11 2.98 11 4 C10.34 4 9.68 4 9 4 C9.495 4.763125 9.99 5.52625 10.5 6.3125 C12 9 12 9 12 12 C9.9375 13.875 9.9375 13.875 7 15 C1 13 1 13 -1 11 C-1.04063832 9.33382885 -1.042721 7.66611905 -1 6 C-1.66 6 -2.32 6 -3 6 C-2.505 9.465 -2.505 9.465 -2 13 C-6.40414508 16.08290155 -6.40414508 16.08290155 -9 17 C-12.4375 15.75 -12.4375 15.75 -15 14 C-14.67 12.02 -14.34 10.04 -14 8 C-15.05182496 10.78318129 -15.05182496 10.78318129 -15.1875 12.9375 C-16.51991528 16.31978495 -18.86287333 17.37110731 -22 19 C-24.75 18.75 -24.75 18.75 -27 18 C-27.66 18 -28.32 18 -29 18 C-27.68 18.99 -26.36 19.98 -25 21 C-25.42679826 24.99796735 -25.84816136 28.64629273 -28.515625 31.78125 C-30.31455855 33.18911104 -31.85943261 34.20190052 -34 35 C-36.8125 34.5 -36.8125 34.5 -39 33 C-39.66 32.01 -40.32 31.02 -41 30 C-41.721875 30.94875 -42.44375 31.8975 -43.1875 32.875 C-45.49809898 35.67412562 -47.44811452 36.98517558 -51 38 C-51.99 37.01 -52.98 36.02 -54 35 C-54 35.66 -54 36.32 -54 37 C-53.34 37.66 -52.68 38.32 -52 39 C-52.52040363 46.93615542 -54.00969719 51.48261583 -60 57 C-61.32 56.34 -62.64 55.68 -64 55 C-64.495 55.495 -64.495 55.495 -65 56 C-64.505 56.54011719 -64.01 57.08023438 -63.5 57.63671875 C-60.70496392 62.04035632 -61.92027639 67.09971591 -63 72 C-64.41702652 74.78294717 -65.90813733 76.63994981 -68 79 C-69.65 77.68 -71.3 76.36 -73 75 C-72.195625 75.86625 -71.39125 76.7325 -70.5625 77.625 C-66.6580732 83.01156049 -66.89023458 89.56304194 -67 96 C-67.4921875 98.42578125 -67.4921875 98.42578125 -68 100 C-70.71561346 99.00427506 -71.79119281 98.42132981 -73.09765625 95.78515625 C-74.05913415 92.8174777 -74.3726984 90.23451551 -74.5625 87.125 C-74.76957082 83.88793367 -75.03493746 80.80828623 -75.6171875 77.61328125 C-76.06083784 73.42576531 -75.49931661 70.12469627 -74.5625 66.0625 C-74.41490234 65.37865234 -74.26730469 64.69480469 -74.11523438 63.99023438 C-73.75412706 62.32448128 -73.37857288 60.66187077 -73 59 C-72.34 59.33 -71.68 59.66 -71 60 C-71.103125 59.113125 -71.20625 58.22625 -71.3125 57.3125 C-71.22304757 46.19803575 -63.92613577 35.24910552 -57 27 C-56.01 26.67 -55.02 26.34 -54 26 C-53.28964424 24.68942115 -52.62688538 23.35249286 -52 22 C-41.9218055 9.32682129 -26.1456871 2.46188835 -10.4609375 0.359375 C-3.2764761 -0.68978444 -3.2764761 -0.68978444 0 0 Z M-8 2 C-7 5 -7 5 -7 5 Z M-27 8 C-26.34 9.32 -25.68 10.64 -25 12 C-24.67 11.01 -24.34 10.02 -24 9 C-24.99 8.67 -25.98 8.34 -27 8 Z M-34 10 C-33 12 -33 12 -33 12 Z M-40 19 C-40.66 19.66 -41.32 20.32 -42 21 C-41.34 21 -40.68 21 -40 21 C-40 23.31 -40 25.62 -40 28 C-38.3516367 26.24755753 -38.3516367 26.24755753 -37 24 C-37.06608997 21.81656815 -37.06608997 21.81656815 -38 20 C-38.66 19.67 -39.32 19.34 -40 19 Z M-49 22 C-49.33 23.65 -49.66 25.3 -50 27 C-49.01 26.01 -48.02 25.02 -47 24 C-47.66 23.34 -48.32 22.68 -49 22 Z M-63 39 C-63 40.32 -63 41.64 -63 43 C-62.01 42.67 -61.02 42.34 -60 42 C-60.99 41.01 -61.98 40.02 -63 39 Z " fill="#5284B2" transform="translate(148,170)"/>
<path d="M0 0 C3.92862057 1.27414721 5.90532822 2.4091341 8 6 C10.32204369 10.99239393 10.3798954 15.71411036 9 21 C8.34 21.33 7.68 21.66 7 22 C8.11375 22.99 8.11375 22.99 9.25 24 C13.11747752 27.87849597 15.79211894 32.50542728 16.25 38 C16.12625 38.99 16.12625 38.99 16 40 C16.33 38.35 16.66 36.7 17 35 C23.3768455 36.06280758 26.5974139 38.20540765 30.671875 43.11328125 C32.41688782 45.59222594 33.2850656 48.06876894 34 51 C34.66 49.68 35.32 48.36 36 47 C38.31 47.66 40.62 48.32 43 49 C43.66 47.68 44.32 46.36 45 45 C51.92988052 45.14437251 55.19760593 48.22255343 60 53 C59.67 54.32 59.34 55.64 59 57 C56.36 56.67 53.72 56.34 51 56 C53.58265114 59.09011944 56.48956659 60.21627918 60.1875 61.6875 C61.27417969 62.12449219 62.36085938 62.56148438 63.48046875 63.01171875 C64.31191406 63.33785156 65.14335937 63.66398437 66 64 C65.67 64.66 65.34 65.32 65 66 C51.72125895 65.94150334 37.36400963 61.35807228 27 53 C26.2575 52.443125 25.515 51.88625 24.75 51.3125 C22.46422468 49.58272408 20.23083832 47.79983557 18 46 C17.33097656 45.49082031 16.66195312 44.98164063 15.97265625 44.45703125 C5.29064008 35.8902658 -1.72687804 22.81936589 -6 10 C-6.03954234 7.66700175 -6.04401732 5.33291811 -6 3 C-5.01 3.99 -4.02 4.98 -3 6 C-2.01 4.02 -1.02 2.04 0 0 Z M2 18 C2 19.65 2 21.3 2 23 C3.32 22.01 4.64 21.02 6 20 C4.68 19.34 3.36 18.68 2 18 Z " fill="#5791BC" transform="translate(82,266)"/>
<path d="M0 0 C1.66666667 0.33333333 3.33333333 0.66666667 5 1 C5.33 0.67 5.66 0.34 6 0 C12.46153846 -0.35897436 12.46153846 -0.35897436 16 2 C16 2.99 16 3.98 16 5 C15.34 5 14.68 5 14 5 C14.495 5.763125 14.99 6.52625 15.5 7.3125 C17 10 17 10 17 13 C14.9375 14.875 14.9375 14.875 12 16 C6 14 6 14 4 12 C3.95936168 10.33382885 3.957279 8.66611905 4 7 C3.34 7 2.68 7 2 7 C2.495 10.465 2.495 10.465 3 14 C-1.40414508 17.08290155 -1.40414508 17.08290155 -4 18 C-7.4375 16.75 -7.4375 16.75 -10 15 C-9.67 13.02 -9.34 11.04 -9 9 C-10.05182496 11.78318129 -10.05182496 11.78318129 -10.1875 13.9375 C-11.51991528 17.31978495 -13.86287333 18.37110731 -17 20 C-19.75 19.75 -19.75 19.75 -22 19 C-22.66 19 -23.32 19 -24 19 C-22.68 19.99 -21.36 20.98 -20 22 C-20.42679826 25.99796735 -20.84816136 29.64629273 -23.515625 32.78125 C-25.31391451 34.18860701 -26.86302567 35.19576235 -29 36 C-31.875 35.625 -31.875 35.625 -34 34 C-34.9375 31.625 -34.9375 31.625 -35 29 C-34.34964186 27.65863633 -33.6837045 26.32467746 -33 25 C-33.30297732 22.57618144 -33.89294211 21.16058683 -35.25 19.125 C-36 17 -36 17 -34.9453125 14.09765625 C-30.43456138 6.91487384 -19.86888589 3.97977914 -11.9375 2.0625 C-8.19738798 1.27485976 -4.80974761 0.99320901 -1 1 C-0.67 0.67 -0.34 0.34 0 0 Z M-3 3 C-2 6 -2 6 -2 6 Z M-22 9 C-21.34 10.32 -20.68 11.64 -20 13 C-19.67 12.01 -19.34 11.02 -19 10 C-19.99 9.67 -20.98 9.34 -22 9 Z M-29 11 C-28 13 -28 13 -28 13 Z " fill="#5790BB" transform="translate(143,169)"/>
<path d="M0 0 C1.32 0 2.64 0 4 0 C4 52.8 4 105.6 4 160 C2.68 160 1.36 160 0 160 C0 107.2 0 54.4 0 0 Z " fill="#033577" transform="translate(246,170)"/>
<path d="M0 0 C16.83333333 0 16.83333333 0 22.375 5.25 C24.94469418 9.59871323 25.36114645 13.19426773 24.375 18.125 C22.48923876 22.06795532 19.94672537 25.02663732 16 27 C13.28024285 27.07187519 10.59325368 27.0927862 7.875 27.0625 C5.27625 27.041875 2.6775 27.02125 0 27 C0 18.09 0 9.18 0 0 Z M7 7 C7 11.62 7 16.24 7 21 C12.79403205 21.58611979 12.79403205 21.58611979 15.9375 18.875 C18.30359785 16.16651882 18.30359785 16.16651882 18 12.875 C16.81783873 9.26291512 16.81783873 9.26291512 14 7 C11.69 7 9.38 7 7 7 Z " fill="#063575" transform="translate(298,214)"/>
<path d="M0 0 C3.5578125 -0.12375 3.5578125 -0.12375 7.1875 -0.25 C7.92508545 -0.28641602 8.6626709 -0.32283203 9.42260742 -0.36035156 C13.02641563 -0.42069892 14.87966133 -0.07776224 17.92578125 1.890625 C20.67778574 4.68927363 20.97011594 5.45212557 21.1875 9.4375 C21 13 21 13 19 16 C18.34 16 17.68 16 17 16 C17.3609375 16.62648438 17.721875 17.25296875 18.09375 17.8984375 C18.78984375 19.12433594 18.78984375 19.12433594 19.5 20.375 C19.9640625 21.18710937 20.428125 21.99921875 20.90625 22.8359375 C22 25 22 25 22 27 C18.8125 27.5 18.8125 27.5 15 27 C13.3630105 25.0590602 12.2763128 23.11503295 11.140625 20.84765625 C10.06646603 18.66596914 10.06646603 18.66596914 7 18 C7 20.97 7 23.94 7 27 C4.69 27 2.38 27 0 27 C0 18.09 0 9.18 0 0 Z M7 6 C7 7.98 7 9.96 7 12 C8.98 12 10.96 12 13 12 C13.33 10.35 13.66 8.7 14 7 C11.69 6.67 9.38 6.34 7 6 Z " fill="#04367B" transform="translate(300,252)"/>
<path d="M0 0 C3.91482798 1.81041452 5.7205726 4.326834 7.375 8.3125 C7.58125 9.199375 7.7875 10.08625 8 11 C4.75 11.25 4.75 11.25 1 11 C0.34 10.319375 -0.32 9.63875 -1 8.9375 C-2.96983952 6.57962372 -2.96983952 6.57962372 -6.625 7 C-9.97103191 7.66841828 -9.97103191 7.66841828 -11.5 9.6875 C-12.16850561 12.77933843 -11.85763141 14.96530423 -11 18 C-7.52957297 20.31361802 -6.08165827 20.51020728 -2 20 C-1.525625 19.34 -1.05125 18.68 -0.5625 18 C-0.046875 17.34 0.46875 16.68 1 16 C4.6875 15.75 4.6875 15.75 8 16 C6.7241042 20.98759267 5.16415397 23.89903428 1 27 C-3.60391625 28.40795187 -7.1898284 28.22578553 -11.8125 26.9375 C-15.67635571 24.58888182 -17.14934573 23.14546557 -19 19 C-19.63778003 14.06445223 -19.65519446 9.65522811 -17.8125 5 C-12.76561514 -0.56897639 -7.24120418 -1.12546575 0 0 Z " fill="#073574" transform="translate(343,252)"/>
<path d="M0 0 C3.91482798 1.81041452 5.7205726 4.326834 7.375 8.3125 C7.58125 9.199375 7.7875 10.08625 8 11 C4.75 11.25 4.75 11.25 1 11 C0.34 10.319375 -0.32 9.63875 -1 8.9375 C-2.96983952 6.57962372 -2.96983952 6.57962372 -6.625 7 C-9.97103191 7.66841828 -9.97103191 7.66841828 -11.5 9.6875 C-12.16850561 12.77933843 -11.85763141 14.96530423 -11 18 C-7.52957297 20.31361802 -6.08165827 20.51020728 -2 20 C-1.525625 19.34 -1.05125 18.68 -0.5625 18 C-0.046875 17.34 0.46875 16.68 1 16 C4.6875 15.75 4.6875 15.75 8 16 C6.7241042 20.98759267 5.16415397 23.89903428 1 27 C-3.60391625 28.40795187 -7.1898284 28.22578553 -11.8125 26.9375 C-15.67635571 24.58888182 -17.14934573 23.14546557 -19 19 C-19.63778003 14.06445223 -19.65519446 9.65522811 -17.8125 5 C-12.76561514 -0.56897639 -7.24120418 -1.12546575 0 0 Z " fill="#04357A" transform="translate(278,252)"/>
<path d="M0 0 C3.92862057 1.27414721 5.90532822 2.4091341 8 6 C10.32204369 10.99239393 10.3798954 15.71411036 9 21 C8.34 21.33 7.68 21.66 7 22 C8.11375 22.99 8.11375 22.99 9.25 24 C13.11747752 27.87849597 15.79211894 32.50542728 16.25 38 C16.12625 38.99 16.12625 38.99 16 40 C16.66 40.33 17.32 40.66 18 41 C17.01 41.66 16.02 42.32 15 43 C4.57751708 35.36173045 -1.98930985 22.03207046 -6 10 C-6.03954234 7.66700175 -6.04401732 5.33291811 -6 3 C-5.01 3.99 -4.02 4.98 -3 6 C-2.01 4.02 -1.02 2.04 0 0 Z M2 18 C2 19.65 2 21.3 2 23 C3.32 22.01 4.64 21.02 6 20 C4.68 19.34 3.36 18.68 2 18 Z " fill="#6195BC" transform="translate(82,266)"/>
<path d="M0 0 C0.45375 0.495 0.9075 0.99 1.375 1.5 C2.87635519 3.22609337 2.87635519 3.22609337 5 3 C5.33 2.34 5.66 1.68 6 1 C6.66 1.33 7.32 1.66 8 2 C8.5775 1.67 9.155 1.34 9.75 1 C12.78842416 -0.35041074 14.82172097 0.27766386 18 1 C17.875 4.25 17.875 4.25 17 8 C14.25 10.5 14.25 10.5 11 12 C8.25 11.75 8.25 11.75 6 11 C5.34 11 4.68 11 4 11 C5.32 11.99 6.64 12.98 8 14 C7.57320174 17.99796735 7.15183864 21.64629273 4.484375 24.78125 C2.68608549 26.18860701 1.13697433 27.19576235 -1 28 C-3.875 27.625 -3.875 27.625 -6 26 C-6.9375 23.625 -6.9375 23.625 -7 21 C-6.34964186 19.65863633 -5.6837045 18.32467746 -5 17 C-5.30297732 14.57618144 -5.89294211 13.16058683 -7.25 11.125 C-8 9 -8 9 -6.9375 5.9375 C-4.89197144 2.83621476 -3.30220511 1.60647816 0 0 Z M-1 3 C0 5 0 5 0 5 Z " fill="#3D68B3" transform="translate(115,177)"/>
<path d="M0 0 C1.4540625 0.0309375 1.4540625 0.0309375 2.9375 0.0625 C4.61281673 3.99637538 6.27625803 7.93516263 7.9375 11.875 C8.41445313 12.99455078 8.89140625 14.11410156 9.3828125 15.26757812 C9.83398438 16.34072266 10.28515625 17.41386719 10.75 18.51953125 C11.37841797 20.0041687 11.37841797 20.0041687 12.01953125 21.51879883 C12.9375 24.0625 12.9375 24.0625 12.9375 27.0625 C10.6275 27.0625 8.3175 27.0625 5.9375 27.0625 C5.4425 24.5875 5.4425 24.5875 4.9375 22.0625 C1.6375 22.0625 -1.6625 22.0625 -5.0625 22.0625 C-5.3925 23.7125 -5.7225 25.3625 -6.0625 27.0625 C-8.7025 27.0625 -11.3425 27.0625 -14.0625 27.0625 C-12.66006761 23.37670273 -11.25415671 19.69225386 -9.8449707 16.0090332 C-9.12981185 14.13759174 -8.4174353 12.26508783 -7.70507812 10.39257812 C-7.25712891 9.22275391 -6.80917969 8.05292969 -6.34765625 6.84765625 C-5.72709351 5.22162476 -5.72709351 5.22162476 -5.09399414 3.56274414 C-3.65493062 0.07459042 -3.65493062 0.07459042 0 0 Z M-1.0625 10.0625 C-1.7225 12.3725 -2.3825 14.6825 -3.0625 17.0625 C-1.4125 17.0625 0.2375 17.0625 1.9375 17.0625 C1.59522428 14.09184491 1.59522428 14.09184491 0.9375 11.0625 C0.2775 10.7325 -0.3825 10.4025 -1.0625 10.0625 Z " fill="#04367C" transform="translate(271.0625,213.9375)"/>
<path d="M0 0 C5.61 0 11.22 0 17 0 C17 1.98 17 3.96 17 6 C13.7 6 10.4 6 7 6 C7 7.32 7 8.64 7 10 C9.97 10 12.94 10 16 10 C16 12.31 16 14.62 16 17 C13.03 17 10.06 17 7 17 C7 18.32 7 19.64 7 21 C10.3 21 13.6 21 17 21 C17 22.98 17 24.96 17 27 C11.39 27 5.78 27 0 27 C0 18.09 0 9.18 0 0 Z " fill="#0A3572" transform="translate(373,252)"/>
<path d="M0 0 C1.39558614 0.62242169 2.7754442 1.28322348 4.125 2 C4.785 2.33 5.445 2.66 6.125 3 C7.59059842 7.32163635 8.29062936 11.43717818 8.125 16 C6.19392527 19.63695124 3.98295631 21.55944901 0.125 23 C-4.57062864 22.64632284 -8.02065025 20.5695665 -11.875 18 C-13.11865267 13.96272361 -13.39048956 10.18768838 -12.875 6 C-9.82268634 0.69015795 -6.02464578 -1.96583409 0 0 Z " fill="#3C69B6" transform="translate(146.875,233)"/>
<path d="M0 0 C3.3125 1.3125 3.3125 1.3125 6 4 C7.27202402 8.10463305 7.62900583 11.74429391 7 16 C5.1631275 18.95077768 3.15376847 20.56587895 0 22 C-2.5 22.125 -2.5 22.125 -5 21 C-6.85625 20.3503125 -6.85625 20.3503125 -8.75 19.6875 C-11.35797306 18.13075837 -11.9321822 17.2020043 -12.9140625 14.27734375 C-13.53188597 10.05205951 -13.97150705 6.5979116 -11.69140625 2.84765625 C-7.90777134 -0.73373537 -5.0580932 -1.93714207 0 0 Z " fill="#3D69B2" transform="translate(223,212)"/>
<path d="M0 0 C1.66015625 0.74869792 3.3203125 1.49739583 4.98046875 2.24609375 C7.09164459 12.29067257 7.09164459 12.29067257 4.58203125 16.70703125 C2.44338511 18.84567739 0.80158534 20.14237768 -2.01953125 21.24609375 C-5.40448828 20.95151679 -8.03889599 19.82916974 -11.01953125 18.24609375 C-11.67953125 17.91609375 -12.33953125 17.58609375 -13.01953125 17.24609375 C-14.490102 13.26172684 -15.20650779 9.49313231 -15.01953125 5.24609375 C-11.03708347 -1.17415848 -6.87363143 -2.56597846 0 0 Z " fill="#68A0C9" transform="translate(163.01953125,252.75390625)"/>
<path d="M0 0 C1.91796875 1.0625 1.91796875 1.0625 3.91796875 3.0625 C4.93842021 7.09600043 5.31678276 10.91806789 4.91796875 15.0625 C3.12488471 18.06727416 1.11480303 19.66981972 -2.08203125 21.0625 C-6.45427922 21.14994496 -9.63466948 19.72189337 -13.08203125 17.0625 C-14.47918447 12.83498477 -14.97636501 8.4364685 -14.08203125 4.0625 C-10.31881323 -2.04830544 -6.33565953 -2.61713991 0 0 Z " fill="#68A0CA" transform="translate(127.08203125,237.9375)"/>
<path d="M0 0 C3.51176169 1.04316168 6.80314301 2.19515193 10 4 C11.625 7.375 11.625 7.375 12 11 C12.185625 12.010625 12.37125 13.02125 12.5625 14.0625 C11.81325058 17.97524695 10.23756244 19.63683857 7.1484375 22.0703125 C4.34461444 23.2836032 3.05423736 22.89307912 0.1875 21.9375 C-1.22614726 21.33165117 -2.62605189 20.69117145 -4 20 C-4.66 19.67 -5.32 19.34 -6 19 C-7.46978571 15.01776009 -8.21385599 11.24504138 -8 7 C-5.81290916 3.89474366 -3.22457264 1.96519019 0 0 Z " fill="#273F7F" transform="translate(187,236)"/>
<path d="M0 0 C3 1 3 1 5 4 C5.44362153 11.78043907 4.15512793 17.18395823 -1 23 C-2.65 21.68 -4.3 20.36 -6 19 C-4.7934375 20.299375 -4.7934375 20.299375 -3.5625 21.625 C0.3419268 27.01156049 0.10976542 33.56304194 0 40 C-0.4921875 42.42578125 -0.4921875 42.42578125 -1 44 C-3.71561346 43.00427506 -4.79119281 42.42132981 -6.09765625 39.78515625 C-7.05913415 36.8174777 -7.3726984 34.23451551 -7.5625 31.125 C-7.76957082 27.88793367 -8.03493746 24.80828623 -8.6171875 21.61328125 C-9.06083784 17.42576531 -8.49931661 14.12469627 -7.5625 10.0625 C-7.41490234 9.37865234 -7.26730469 8.69480469 -7.11523438 7.99023438 C-6.75412706 6.32448128 -6.37857288 4.66187077 -6 3 C-5.01 3.66 -4.02 4.32 -3 5 C-3 4.34 -3 3.68 -3 3 C-1.5 1.375 -1.5 1.375 0 0 Z " fill="#3C78A7" transform="translate(81,226)"/>
<path d="M0 0 C2.07421875 1.18359375 2.07421875 1.18359375 3.63671875 3.43359375 C3.78109375 4.34109375 3.92546875 5.24859375 4.07421875 6.18359375 C4.44546875 7.29734375 4.81671875 8.41109375 5.19921875 9.55859375 C5.05221233 13.82177994 4.4458156 14.35597792 1.44921875 17.18359375 C-0.65234375 18.99609375 -0.65234375 18.99609375 -2.92578125 20.18359375 C-7.14327191 19.82465837 -11.87333848 18.23603652 -14.92578125 15.18359375 C-15.89779993 11.45434563 -16.34010653 8.02407041 -15.92578125 4.18359375 C-11.91438907 -2.17732813 -6.58455313 -2.59147038 0 0 Z " fill="#4484B4" transform="translate(158.92578125,213.81640625)"/>
<path d="M0 0 C3.4006725 0.98928655 5.7124055 1.74206456 8.4375 4 C9.75 6.875 9.75 6.875 10.4375 10 C10.623125 10.825 10.80875 11.65 11 12.5 C10.188577 16.10632443 8.16258688 17.66215603 5.3046875 19.89453125 C3.4375 21 3.4375 21 0.875 21.0625 C-0.3315625 20.5365625 -0.3315625 20.5365625 -1.5625 20 C-2.614375 19.5875 -3.66625 19.175 -4.75 18.75 C-7.5625 17 -7.5625 17 -8.9375 14.75 C-9.73945485 11.22139866 -10.0780136 8.60859518 -9.5625 5 C-6.43984407 1.34420769 -4.86514687 0 0 0 Z " fill="#69A0CA" transform="translate(175.5625,210)"/>
<path d="M0 0 C4.25048398 0.62507117 7.55307145 1.37733697 11 4 C12.86946652 7.94794171 13.87914422 11.62617161 14 16 C12.66115494 19.04132706 10.9934488 20.58678383 8 22 C3.66634152 22.08844201 0.32195047 20.76829206 -3 18 C-4.52773698 14.07153347 -5.7528993 10.19472469 -5 6 C-3.48994154 3.79015835 -1.83371056 1.97123885 0 0 Z " fill="#68A2CD" transform="translate(112,258)"/>
<path d="M0 0 C3.97946674 0.56849525 6.8012378 1.53059726 10 4 C11.52769738 8.86912909 12.22961751 14.54507943 9.88671875 19.22265625 C8.375 20.875 8.375 20.875 5 23 C2.375 23 2.375 23 0 22 C-1.01320313 21.66548828 -1.01320313 21.66548828 -2.046875 21.32421875 C-4 20 -4 20 -5.0390625 17.20703125 C-6.59685346 8.18222897 -6.59685346 8.18222897 -4.78125 4.5859375 C-3.28279707 2.86837117 -1.79818789 1.39689737 0 0 Z " fill="#6699C3" transform="translate(100,240)"/>
<path d="M0 0 C2.38591534 0.69831668 4.36416456 1.61115956 6.5625 2.75 C7.61554908 12.92947447 7.61554908 12.92947447 5.1796875 17.140625 C2.57568011 19.91372378 0.80311601 21.66138457 -3.0625 21.9375 C-6.14059739 20.3984513 -8.13973908 19.37601248 -10.4375 16.75 C-11.34751411 12.9206606 -11.35024799 9.39155817 -9.41015625 5.90234375 C-6.85220288 2.7379455 -4.28058774 -0.43903464 0 0 Z " fill="#5FAAD2" transform="translate(112.4375,219.25)"/>
<path d="M0 0 C0.63292969 0.31839844 1.26585937 0.63679688 1.91796875 0.96484375 C2.57796875 1.29484375 3.23796875 1.62484375 3.91796875 1.96484375 C5.01568784 6.43804906 6.17862218 11.74305384 3.81640625 15.90625 C1.48195206 18.00725877 -0.43703376 18.96484375 -3.58203125 18.96484375 C-4.40703125 18.63484375 -5.23203125 18.30484375 -6.08203125 17.96484375 C-7.13390625 17.67609375 -8.18578125 17.38734375 -9.26953125 17.08984375 C-12.52624885 14.62921267 -12.89792811 13.51811488 -13.89453125 9.65234375 C-14.31142767 6.45755588 -14.45394937 4.67405313 -12.94921875 1.8046875 C-8.61773953 -2.61745059 -5.4675013 -2.34321484 0 0 Z " fill="#3A69BB" transform="translate(155.08203125,274.03515625)"/>
<path d="M0 0 C0.9075 0.495 1.815 0.99 2.75 1.5 C4.08141213 2.17049532 5.41439139 2.83790343 6.75 3.5 C7.80641609 14.01385534 7.80641609 14.01385534 5.3671875 17.4453125 C2.58416119 19.55366577 0.6399311 20.5 -2.875 20.5 C-3.65875 20.17 -4.4425 19.84 -5.25 19.5 C-6.1575 19.21125 -7.065 18.9225 -8 18.625 C-11.27047226 15.53622065 -11.48862893 12.64936954 -11.7109375 8.25 C-11.14890679 4.89686761 -10.28386267 3.83621393 -7.6875 1.6875 C-4.56702547 -0.21310316 -3.70870832 -0.57057051 0 0 Z " fill="#6A96BD" transform="translate(202.25,262.5)"/>
<path d="M0 0 C2.25 1.875 2.25 1.875 2.6875 5.1875 C2.04674896 10.58811591 1.65579056 13.65664818 -2.5625 17.3125 C-5.75 18.875 -5.75 18.875 -8.375 18.8125 C-11.00304202 17.77511499 -12.68150087 16.80730165 -14.75 14.875 C-15.76906131 11.1009183 -15.6562693 7.66730545 -14.75 3.875 C-10.13972106 -1.94221517 -6.56236809 -2.68460513 0 0 Z " fill="#69A2CB" transform="translate(229.75,257.125)"/>
<path d="M0 0 C2.21752327 0.66751976 4.17933555 1.40216778 6.25 2.4375 C7.1015625 4.94140625 7.1015625 4.94140625 7.875 8 C8.13539063 9.01191406 8.39578125 10.02382813 8.6640625 11.06640625 C8.85742188 11.84886719 9.05078125 12.63132812 9.25 13.4375 C7.27 15.4175 5.29 17.3975 3.25 19.4375 C-0.40237184 18.95655791 -3.52163801 18.249026 -6.75 16.4375 C-8.80610269 12.9348929 -9.85227876 9.38345379 -10.75 5.4375 C-5.52678571 -1.25892857 -5.52678571 -1.25892857 0 0 Z " fill="#397FB4" transform="translate(131.75,276.5625)"/>
<path d="M0 0 C2.16796875 0.734375 2.16796875 0.734375 4 2 C4.828125 4.3828125 4.828125 4.3828125 5.25 7.125 C5.39953125 8.03507813 5.5490625 8.94515625 5.703125 9.8828125 C5.85007813 10.93082031 5.85007813 10.93082031 6 12 C4.00077282 13.99922718 2.4021391 15.5776808 0 17 C-4.28668385 16.92479502 -8.2371531 16.10276739 -12 14 C-12.8125 12.3125 -12.8125 12.3125 -13 10 C-13.12375 8.845 -13.2475 7.69 -13.375 6.5 C-13 3 -13 3 -11 0.5 C-7.03144204 -1.48427898 -4.20497298 -1.18708979 0 0 Z " fill="#273F7F" transform="translate(218,169)"/>
<path d="M0 0 C6.92988052 0.14437251 10.19760593 3.22255343 15 8 C14.67 9.32 14.34 10.64 14 12 C11.36 11.67 8.72 11.34 6 11 C8.58265114 14.09011944 11.48956659 15.21627918 15.1875 16.6875 C16.27417969 17.12449219 17.36085937 17.56148438 18.48046875 18.01171875 C19.31191406 18.33785156 20.14335937 18.66398437 21 19 C20.67 19.66 20.34 20.32 20 21 C12.60860415 20.59248958 6.00177279 19.41492814 -1 17 C-1.33 15.35 -1.66 13.7 -2 12 C-0.02 12.66 1.96 13.32 4 14 C4.33 13.34 4.66 12.68 5 12 C4.01 11.67 3.02 11.34 2 11 C1.566875 10.525625 1.13375 10.05125 0.6875 9.5625 C-1.61015902 7.43503794 -4.02750796 6.85871992 -7 6 C-7.33 6.66 -7.66 7.32 -8 8 C-9.65 7.67 -11.3 7.34 -13 7 C-12.34 6.67 -11.68 6.34 -11 6 C-9.86649466 3.98330173 -9.86649466 3.98330173 -9 2 C-6.69 2.66 -4.38 3.32 -2 4 C-1.34 2.68 -0.68 1.36 0 0 Z " fill="#5887AD" transform="translate(127,311)"/>
<path d="M0 0 C0.99 0.33 1.98 0.66 3 1 C3.73046875 2.99609375 3.73046875 2.99609375 4.1875 5.4375 C4.34605469 6.24058594 4.50460938 7.04367188 4.66796875 7.87109375 C5 10 5 10 5 12 C2.31965925 14.67400425 -0.46203983 16.64006336 -4 18 C-7.43661305 17.3395098 -10.09125799 15.91165551 -13 14 C-13.89284762 5.48487919 -13.89284762 5.48487919 -11.91015625 2.1875 C-7.98037086 -1.48168954 -4.95302828 -1.30834709 0 0 Z " fill="#679AC2" transform="translate(145,199)"/>
<path d="M0 0 C4.63904537 0.91096766 7.96772234 2.05559253 10.8046875 6.02734375 C12.24944145 8.98908936 12.8046875 10.71467928 12.8046875 14.02734375 C10.7421875 16.27734375 10.7421875 16.27734375 7.8046875 18.02734375 C3.10137411 17.94335601 -0.64849732 17.18006836 -4.1953125 14.02734375 C-5.49089715 11.09796963 -6.39635566 8.12573735 -7.1953125 5.02734375 C-3.51698693 0.04380589 -3.51698693 0.04380589 0 0 Z " fill="#3B7FB0" transform="translate(178.1953125,192.97265625)"/>
<path d="M0 0 C4.41429431 1.20389845 7.33623835 2.19462621 10 6 C11.42977646 9.92514104 12.79804971 13.95247852 11.2265625 17.984375 C10.125 19.625 10.125 19.625 8 22 C3.57950955 20.7944117 0.88578023 19.60722528 -2 16 C-3.96279314 12.27069303 -4.52387219 9.1909775 -4 5 C-2 2.125 -2 2.125 0 0 Z " fill="#3C7FB0" transform="translate(95,262)"/>
<path d="M0 0 C2.75 1 2.75 1 5.75 3 C6.66015563 6.44249339 6.57144036 9.54573799 5.75 13 C3.53507812 15.95322918 1.19399044 17.67770001 -2.25 19 C-6.32558801 18.47411768 -8.34586114 17.90413886 -11.25 15 C-11.70820491 10.98065869 -11.22491451 7.34452496 -8.828125 4.0390625 C-5.83183147 1.21512214 -4.1968671 0 0 0 Z " fill="#3F87BB" transform="translate(123.25,201)"/>
<path d="M0 0 C8.74848222 2.38746748 8.74848222 2.38746748 11.625 6.09375 C13.33073529 9.64736519 14.16838773 12.0107221 13.5 15.9375 C11.71726073 18.3887665 10.98872127 19.35379 8 20 C3.16407622 18.76903758 0.81206623 17.26085229 -2 13.125 C-3.46012935 10.50253084 -4 9.29154659 -4 6.25 C-2.93949604 3.8638661 -1.59168891 2.058815 0 0 Z " fill="#3980B6" transform="translate(109,279)"/>
<path d="M0 0 C1.98 0 3.96 0 6 0 C6 6.93 6 13.86 6 21 C9.3 21 12.6 21 16 21 C16 22.98 16 24.96 16 27 C10.72 27 5.44 27 0 27 C0 18.09 0 9.18 0 0 Z " fill="#0A3875" transform="translate(354,252)"/>
<path d="M0 0 C2.25 1 2.25 1 4.25 3 C5.02245935 7.89471841 5.42256664 12.951417 2.90625 17.34765625 C1.43595668 19.03641297 -0.04109032 20.55556444 -1.75 22 C-4.66517292 20.92598892 -6.52810176 20.22189824 -8.75 18 C-9.48997928 13.24705615 -9.92205979 8.16772263 -7.58203125 3.83984375 C-5.21758267 1.26873385 -3.53538394 0 0 0 Z " fill="#417DA9" transform="translate(95.75,223)"/>
<path d="M0 0 C5.44012376 1.89972576 5.44012376 1.89972576 8 4 C9.42721064 7.42646116 9.65167456 10.35414505 9 14 C7.27917165 16.89271862 6.15301171 17.3948304 3 19 C-0.73696902 18.34053488 -2.84619006 17.10253996 -6 15 C-6.51171875 12.6171875 -6.51171875 12.6171875 -6.6875 9.875 C-6.75324219 8.96492188 -6.81898438 8.05484375 -6.88671875 7.1171875 C-6.92410156 6.41851562 -6.96148437 5.71984375 -7 5 C-4.69 3.35 -2.38 1.7 0 0 Z " fill="#264081" transform="translate(162,288)"/>
<path d="M0 0 C4.75 1.875 4.75 1.875 7 3 C8.48255495 7.94184983 10.02016559 13.50402175 8.01171875 18.41796875 C6.625 20.3125 6.625 20.3125 4 23 C1.08482708 21.92598892 -0.77810176 21.22189824 -3 19 C-4.50113381 14.49659857 -4.58221561 9.68040861 -4 5 C-2 1.875 -2 1.875 0 0 Z " fill="#548CBA" transform="translate(85,244)"/>
<path d="M0 0 C2.50963346 0.96135153 4.67733751 2.2981948 6.9375 3.7421875 C6.12362116 12.29622021 6.12362116 12.29622021 3.421875 15.58984375 C1.61629087 16.99898441 0.10018922 17.98711066 -2.0625 18.7421875 C-4.875 18.1171875 -4.875 18.1171875 -7.0625 16.7421875 C-7.7225 16.4121875 -8.3825 16.0821875 -9.0625 15.7421875 C-10.11879997 7.2582544 -10.11879997 7.2582544 -7.64453125 3.70703125 C-3.10415585 -0.38801948 -3.10415585 -0.38801948 0 0 Z " fill="#3B7EAF" transform="translate(182.0625,286.2578125)"/>
<path d="M0 0 C8.26485149 1.97524752 8.26485149 1.97524752 11.0625 5.875 C12.57065217 10.90217391 12.57065217 10.90217391 12 14 C10.3125 16.375 10.3125 16.375 8 18 C4.05881117 17.89894388 1.10238952 16.36761305 -2 14 C-3.78558678 11.20258071 -5.03635093 9.23593168 -4.9375 5.875 C-3.70766224 3.41532448 -2.02803146 1.83177035 0 0 Z " fill="#377EB6" transform="translate(142,291)"/>
<path d="M0 0 C3.5578125 -0.12375 3.5578125 -0.12375 7.1875 -0.25 C7.92508545 -0.28641602 8.6626709 -0.32283203 9.42260742 -0.36035156 C13.02641563 -0.42069892 14.87966133 -0.07776224 17.92578125 1.890625 C20.67778574 4.68927363 20.97011594 5.45212557 21.1875 9.4375 C21 13 21 13 19 16 C18.34 16 17.68 16 17 16 C17.3609375 16.62648438 17.721875 17.25296875 18.09375 17.8984375 C18.78984375 19.12433594 18.78984375 19.12433594 19.5 20.375 C19.9640625 21.18710937 20.428125 21.99921875 20.90625 22.8359375 C22 25 22 25 22 27 C18.8125 27.5 18.8125 27.5 15 27 C13.3630105 25.0590602 12.2763128 23.11503295 11.140625 20.84765625 C10.06646603 18.66596914 10.06646603 18.66596914 7 18 C7 20.97 7 23.94 7 27 C4.69 27 2.38 27 0 27 C0 18.09 0 9.18 0 0 Z M1 1 C1 8.92 1 16.84 1 25 C2.32 25 3.64 25 5 25 C5.33 22.36 5.66 19.72 6 17 C8.31 17 10.62 17 13 17 C13.33 16.01 13.66 15.02 14 14 C15.65 13.67 17.3 13.34 19 13 C18.73606499 9.56769552 18.73606499 9.56769552 18 6 C17.01 5.34 16.02 4.68 15 4 C15 3.01 15 2.02 15 1 C10.38 1 5.76 1 1 1 Z " fill="#0D366C" transform="translate(300,252)"/>
<path d="M0 0 C2.3125 0.8125 2.3125 0.8125 4.3125 1.8125 C4.58514574 11.23581839 4.58514574 11.23581839 1.46484375 15.1015625 C-0.52107792 16.80378107 -2.5127559 18.36101932 -4.6875 19.8125 C-6.6675 18.8225 -8.6475 17.8325 -10.6875 16.8125 C-10.57240339 15.39499437 -10.44496342 13.97848831 -10.3125 12.5625 C-10.24289063 11.77359375 -10.17328125 10.9846875 -10.1015625 10.171875 C-9.42796234 6.33362503 -8.12392103 4.24892103 -5.375 1.5 C-2.6875 -0.1875 -2.6875 -0.1875 0 0 Z " fill="#2A417C" transform="translate(106.6875,204.1875)"/>
<path d="M0 0 C0.78375 0.185625 1.5675 0.37125 2.375 0.5625 C2.705 0.2325 3.035 -0.0975 3.375 -0.4375 C9.83653846 -0.79647436 9.83653846 -0.79647436 13.375 1.5625 C13.375 2.5525 13.375 3.5425 13.375 4.5625 C12.715 4.5625 12.055 4.5625 11.375 4.5625 C11.87 5.325625 12.365 6.08875 12.875 6.875 C14.375 9.5625 14.375 9.5625 14.375 12.5625 C12.3125 14.4375 12.3125 14.4375 9.375 15.5625 C3.375 13.5625 3.375 13.5625 1.375 11.5625 C1.33436168 9.89632885 1.332279 8.22861905 1.375 6.5625 C0.385 6.8925 -0.605 7.2225 -1.625 7.5625 C-1.625 6.9025 -1.625 6.2425 -1.625 5.5625 C-2.615 5.2325 -3.605 4.9025 -4.625 4.5625 C-4.955 3.5725 -5.285 2.5825 -5.625 1.5625 C-2.625 -0.4375 -2.625 -0.4375 0 0 Z " fill="#263F7F" transform="translate(145.625,169.4375)"/>
<path d="M0 0 C3.15027083 2.47830939 3.19934623 5.49853062 3.703125 9.33984375 C1.71313629 11.28245178 0.04787782 12.90101816 -2.296875 14.33984375 C-6.21542224 14.26147281 -8.87503591 13.10950731 -12.296875 11.33984375 C-12.65163621 8.26524661 -12.79011474 5.4042268 -12.296875 2.33984375 C-8.3195816 -2.03517899 -5.15647405 -2.29285964 0 0 Z " fill="#2B4475" transform="translate(153.296875,184.66015625)"/>
<path d="M0 0 C1.98 0 3.96 0 6 0 C7.6387674 1.6387674 7.12995732 3.51414466 7.1328125 5.76953125 C7.13410156 6.74083984 7.13539063 7.71214844 7.13671875 8.71289062 C7.13285156 9.73576172 7.12898438 10.75863281 7.125 11.8125 C7.12886719 12.82376953 7.13273437 13.83503906 7.13671875 14.87695312 C7.13542969 15.85212891 7.13414062 16.82730469 7.1328125 17.83203125 C7.13168457 18.72639893 7.13055664 19.6207666 7.12939453 20.54223633 C7.00862026 22.83626391 6.64445753 24.80199665 6 27 C4.02 27 2.04 27 0 27 C0 18.09 0 9.18 0 0 Z " fill="#063778" transform="translate(287,214)"/>
<path d="M0 0 C4.27205245 0.78905446 6.43460773 2.55864365 9.0625 6.0625 C9.875 8.875 9.875 8.875 10.0625 11.0625 C8.1875 13.25 8.1875 13.25 5.0625 15.0625 C1.32031862 14.87777449 -1.71775792 13.97981169 -4.9375 12.0625 C-6.71754825 9.35534329 -7.19824861 7.28352393 -7.9375 4.0625 C-5.39535606 0.56705208 -4.42344884 0.07021347 0 0 Z " fill="#3968BC" transform="translate(187.9375,172.9375)"/>
<path d="M0 0 C1.55923778 1.55923778 1.35685611 3.08852723 1.5 5.25 C1.46426861 8.03704867 1.33827468 9.52146509 -0.28125 11.8125 C-2.18818871 13.40739419 -3.60426464 14.31486447 -6 15 C-9.10303824 14.48732412 -11.14566928 13.45220335 -14 12 C-13.39034495 7.08071445 -12.92711156 3.88497013 -9.25 0.375 C-5.55088318 -1.19001096 -3.80272016 -1.14965958 0 0 Z " fill="#437DA9" transform="translate(137,187)"/>
<path d="M0 0 C4.18790741 0.37225844 7.71964026 0.89238721 10.96875 3.703125 C13.75068235 7.14117347 15.03608943 8.98949591 14.875 13.5 C14.441875 14.7375 14.441875 14.7375 14 16 C8.4545699 15.49701314 4.73095571 14.34018086 0.8125 10.25 C-0.890625 8.109375 -0.890625 8.109375 -2 6 C-1.4375 2.5 -1.4375 2.5 0 0 Z " fill="#3880B6" transform="translate(110,298)"/>
<path d="M0 0 C1.98 0 3.96 0 6 0 C6 8.91 6 17.82 6 27 C4.02 27 2.04 27 0 27 C0 18.09 0 9.18 0 0 Z " fill="#04367A" transform="translate(289,252)"/>
<path d="M0 0 C1.32 0.66 2.64 1.32 4 2 C3.18858463 9.97891781 2.11012686 14.37225157 -4 20 C-5.9375 19.3125 -5.9375 19.3125 -8 18 C-9.13531135 14.6813976 -9.10336858 12.31010574 -8 9 C-7.34 9 -6.68 9 -6 9 C-5.9071875 8.1646875 -5.9071875 8.1646875 -5.8125 7.3125 C-4.66626128 4.05012827 -2.50609803 2.31332126 0 0 Z " fill="#27407D" transform="translate(92,207)"/>
<path d="M0 0 C1.4540625 0.0309375 1.4540625 0.0309375 2.9375 0.0625 C4.61281673 3.99637538 6.27625803 7.93516263 7.9375 11.875 C8.41445313 12.99455078 8.89140625 14.11410156 9.3828125 15.26757812 C9.83398438 16.34072266 10.28515625 17.41386719 10.75 18.51953125 C11.37841797 20.0041687 11.37841797 20.0041687 12.01953125 21.51879883 C12.9375 24.0625 12.9375 24.0625 12.9375 27.0625 C10.6275 27.0625 8.3175 27.0625 5.9375 27.0625 C5.6075 25.4125 5.2775 23.7625 4.9375 22.0625 C5.5975 22.0625 6.2575 22.0625 6.9375 22.0625 C6.9375 20.4125 6.9375 18.7625 6.9375 17.0625 C5.2875 16.7325 3.6375 16.4025 1.9375 16.0625 C1.6075 14.4125 1.2775 12.7625 0.9375 11.0625 C1.5975 11.0625 2.2575 11.0625 2.9375 11.0625 C3.2675 10.0725 3.5975 9.0825 3.9375 8.0625 C3.2775 7.0725 2.6175 6.0825 1.9375 5.0625 C1.9375 4.0725 1.9375 3.0825 1.9375 2.0625 C0.6175 2.0625 -0.7025 2.0625 -2.0625 2.0625 C-2.0625 2.7225 -2.0625 3.3825 -2.0625 4.0625 C-2.7225 4.0625 -3.3825 4.0625 -4.0625 4.0625 C-4.145 4.8875 -4.2275 5.7125 -4.3125 6.5625 C-5.22697269 10.83003921 -6.98473178 14.25486894 -9.0625 18.0625 C-9.3925 17.4025 -9.7225 16.7425 -10.0625 16.0625 C-9.17838959 13.48335672 -8.2365129 11.01063753 -7.1875 8.5 C-6.90519531 7.80197266 -6.62289063 7.10394531 -6.33203125 6.38476562 C-3.74999906 0.07653059 -3.74999906 0.07653059 0 0 Z " fill="#083571" transform="translate(271.0625,213.9375)"/>
<path d="M0 0 C1.9375 0.6875 1.9375 0.6875 2.9375 2.6875 C1.9475 3.1825 1.9475 3.1825 0.9375 3.6875 C0.9375 9.2975 0.9375 14.9075 0.9375 20.6875 C2.2575 21.3475 3.5775 22.0075 4.9375 22.6875 C3.8125 24.1875 3.8125 24.1875 1.9375 25.6875 C-0.0425 25.6875 -2.0225 25.6875 -4.0625 25.6875 C-4.0625 17.4375 -4.0625 9.1875 -4.0625 0.6875 C-2.0625 -0.3125 -2.0625 -0.3125 0 0 Z " fill="#02367B" transform="translate(303.0625,215.3125)"/>
<path d="M0 0 C16.92105263 0 16.92105263 0 22.4375 5.375 C24.14191172 8.23841169 24.3735461 9.73147163 24 13 C22 10 22 10 21.3125 7.9375 C19.25240563 4.89640831 16.45056557 4.76679235 13 4 C15.475 5.98 15.475 5.98 18 8 C17.67 9.32 17.34 10.64 17 12 C16.649375 11.360625 16.29875 10.72125 15.9375 10.0625 C13.22815794 7.17836168 10.84141089 7.2899178 7 7 C7 11.62 7 16.24 7 21 C8.98 21 10.96 21 13 21 C13 21.33 13 21.66 13 22 C10.69 22 8.38 22 6 22 C5.67 16.06 5.34 10.12 5 4 C5.66 3.67 6.32 3.34 7 3 C4.92446352 2.4465236 3.15634036 2 1 2 C1 10.25 1 18.5 1 27 C0.67 27 0.34 27 0 27 C0 18.09 0 9.18 0 0 Z " fill="#0A3268" transform="translate(298,214)"/>
<path d="M0 0 C0 3 0 3 -2 6 C-2 6.99 -2 7.98 -2 9 C-0.68 8.34 0.64 7.68 2 7 C0.50902342 10.7952131 -1.75700849 12.61042731 -5 15 C-5.33 14.67 -5.66 14.34 -6 14 C-6 15.98 -6 17.96 -6 20 C-6.66 20 -7.32 20 -8 20 C-7.938125 20.86625 -7.87625 21.7325 -7.8125 22.625 C-8.02940828 26.52934909 -8.90876499 28.71377356 -11 32 C-13.1875 33.375 -13.1875 33.375 -15 34 C-16.45321219 21.50237514 -8.19157375 10.45008452 -1 1 C-0.67 0.67 -0.34 0.34 0 0 Z " fill="#4477A8" transform="translate(92,196)"/>
<path d="M0 0 C0.66 0.33 1.32 0.66 2 1 C1.195625 1.61875 0.39125 2.2375 -0.4375 2.875 C-3.03874519 4.74164041 -3.03874519 4.74164041 -4 7 C-4.66 7 -5.32 7 -6 7 C-5.94012211 9.46098116 -5.85321526 11.91578412 -5.75 14.375 C-5.73582031 15.07367188 -5.72164063 15.77234375 -5.70703125 16.4921875 C-5.63964218 18.77717646 -5.63964218 18.77717646 -5 22 C-3.12068531 23.50372414 -3.12068531 23.50372414 -1 24 C-0.67 24.33 -0.34 24.66 0 25 C5.49986331 25.68748291 10.40400434 23.97820519 15 21 C16.28294859 18.95805015 16.28294859 18.95805015 17 17 C15.68 17 14.36 17 13 17 C12.773125 17.598125 12.54625 18.19625 12.3125 18.8125 C10.59923012 21.6679498 9.0330768 22.65980327 6 24 C3.1875 23.6875 3.1875 23.6875 1 23 C1 22.01 1 21.02 1 20 C2.258125 20.0825 3.51625 20.165 4.8125 20.25 C7.00637644 20.31810736 7.00637644 20.31810736 9 20 C10.0260734 18.68662604 11.02727325 17.35335895 12 16 C15.6875 15.75 15.6875 15.75 19 16 C17.7241042 20.98759267 16.16415397 23.89903428 12 27 C7.39608375 28.40795187 3.8101716 28.22578553 -0.8125 26.9375 C-4.67635571 24.58888182 -6.14934573 23.14546557 -8 19 C-8.63778003 14.06445223 -8.65519446 9.65522811 -6.8125 5 C-4.72567949 2.69730151 -2.82132984 1.30215224 0 0 Z " fill="#113568" transform="translate(267,252)"/>
<path d="M0 0 C1.98 0.66 3.96 1.32 6 2 C7.05702499 12.21790827 7.05702499 12.21790827 4.58203125 16.390625 C2.77790151 18.28323018 1.31726953 19.78013657 -1 21 C-3.234375 20.66796875 -3.234375 20.66796875 -5 20 C-5 19.01 -5 18.02 -5 17 C-4.34 17 -3.68 17 -3 17 C-3.0825 15.741875 -3.165 14.48375 -3.25 13.1875 C-3.25690976 9.28348663 -3.25690976 9.28348663 -1.1875 7 C1 6 1 6 4 6 C4 5.01 4 4.02 4 3 C2.68 2.67 1.36 2.34 0 2 C0 1.34 0 0.68 0 0 Z " fill="#68A2CE" transform="translate(113,220)"/>
<path d="M0 0 C2.4503243 1.63354954 3.53472369 2.49017028 5 5 C6.0465922 10.87061985 6.87048732 17.23026603 5 23 C2.34138147 22.02517321 1.21964719 21.4313934 -0.0859375 18.8671875 C-1.16636154 15.47816508 -1.495874 12.3590525 -1.75 8.8125 C-1.84796875 7.58144531 -1.9459375 6.35039062 -2.046875 5.08203125 C-2 2 -2 2 0 0 Z " fill="#274183" transform="translate(75,247)"/>
<path d="M0 0 C2.1640625 -0.29296875 2.1640625 -0.29296875 4.625 -0.1875 C5.44226563 -0.16042969 6.25953125 -0.13335937 7.1015625 -0.10546875 C8.04128906 -0.05326172 8.04128906 -0.05326172 9 0 C9.33 1.32 9.66 2.64 10 4 C7.36 4 4.72 4 2 4 C2 5.98 2 7.96 2 10 C4.97 10 7.94 10 11 10 C11 11.32 11 12.64 11 14 C10.22914063 13.98839844 9.45828125 13.97679687 8.6640625 13.96484375 C7.66117187 13.95582031 6.65828125 13.94679688 5.625 13.9375 C4.12839844 13.92009766 4.12839844 13.92009766 2.6015625 13.90234375 C0.01567547 13.81993398 0.01567547 13.81993398 -2 15 C-2.05406122 13.06280622 -2.09282025 11.12518079 -2.125 9.1875 C-2.14820313 8.10855469 -2.17140625 7.02960938 -2.1953125 5.91796875 C-2 3 -2 3 0 0 Z " fill="#02367E" transform="translate(377,253)"/>
<path d="M0 0 C2.9375 0.8125 2.9375 0.8125 5.9375 2.8125 C6.84765563 6.25499339 6.75894036 9.35823799 5.9375 12.8125 C3.72159721 15.76703706 1.38023653 17.48467317 -2.0625 18.8125 C-5.9375 18.375 -5.9375 18.375 -9.0625 16.8125 C-9.7225 15.8225 -10.3825 14.8325 -11.0625 13.8125 C-10.0725 13.4825 -9.0825 13.1525 -8.0625 12.8125 C-6.36735863 13.76343297 -4.69881892 14.76357762 -3.0625 15.8125 C-2.4025 15.8125 -1.7425 15.8125 -1.0625 15.8125 C-1.0625 14.4925 -1.0625 13.1725 -1.0625 11.8125 C-0.75419075 9.80848989 -0.42520588 7.80738234 -0.0625 5.8125 C1.2575 5.4825 2.5775 5.1525 3.9375 4.8125 C3.9375 4.1525 3.9375 3.4925 3.9375 2.8125 C1.40403542 2.74212598 -0.7862863 2.74147362 -3.25 3.375 C-5.0625 3.8125 -5.0625 3.8125 -7.0625 2.8125 C-4.54227966 0.38921121 -3.56612094 -0.21833394 0 0 Z " fill="#4484B2" transform="translate(123.0625,201.1875)"/>
<path d="M0 0 C6.92988052 0.14437251 10.19760593 3.22255343 15 8 C14.67 9.32 14.34 10.64 14 12 C10.1936543 11.32829194 6.64793184 10.27253436 3 9 C3 8.34 3 7.68 3 7 C1.68 6.34 0.36 5.68 -1 5 C-0.67 3.35 -0.34 1.7 0 0 Z " fill="#6291AF" transform="translate(127,311)"/>
<path d="M0 0 C0.99 0.33 1.98 0.66 3 1 C3 1.66 3 2.32 3 3 C3.99 2.67 4.98 2.34 6 2 C7.50662097 5.01324195 7.17770373 7.68286377 7 11 C6.34 11.66 5.68 12.32 5 13 C2.875 12.625 2.875 12.625 1 12 C0.67 12.66 0.34 13.32 0 14 C-0.99 14 -1.98 14 -3 14 C-3.2236337 12.58566794 -3.42826476 11.16832382 -3.625 9.75 C-3.74101563 8.96109375 -3.85703125 8.1721875 -3.9765625 7.359375 C-4.00358289 4.6393221 -3.47334432 3.26514161 -2 1 C-1.34 0.67 -0.68 0.34 0 0 Z M2 3 C2 3.66 2 4.32 2 5 C2.99 4.67 3.98 4.34 5 4 C4.01 3.67 3.02 3.34 2 3 Z " fill="#3680B7" transform="translate(92,226)"/>
<path d="M0 0 C0.66 2.31 1.32 4.62 2 7 C0.68 7.99 -0.64 8.98 -2 10 C-2 9.34 -2 8.68 -2 8 C-2.66 8 -3.32 8 -4 8 C-4.33 9.65 -4.66 11.3 -5 13 C-5.66 13 -6.32 13 -7 13 C-7.66 12.34 -8.32 11.68 -9 11 C-9.99 11 -10.98 11 -12 11 C-12 10.01 -12 9.02 -12 8 C-11.34 8 -10.68 8 -10 8 C-9.67 6.02 -9.34 4.04 -9 2 C-3.375 0 -3.375 0 0 0 Z " fill="#6AA1CC" transform="translate(147,202)"/>
<path d="M0 0 C5.47870172 1.00442865 8.84557863 2.10522996 13 6 C12.1875 7.9375 12.1875 7.9375 11 10 C6.9761071 11.34129763 4.92371185 10.47139194 1 9 C-1 7.125 -1 7.125 -2 5 C-1.75203633 2.83031791 -1.55766393 1.55766393 0 0 Z " fill="#3E75A0" transform="translate(161,172)"/>
<path d="M0 0 C5.61 0 11.22 0 17 0 C17 1.98 17 3.96 17 6 C13.7 6 10.4 6 7 6 C7 7.32 7 8.64 7 10 C9.97 10 12.94 10 16 10 C16 11.98 16 13.96 16 16 C15.67 16 15.34 16 15 16 C15 14.35 15 12.7 15 11 C13.88625 11.2784375 13.88625 11.2784375 12.75 11.5625 C10.05009037 11.99203108 8.55368923 11.85122974 6 11 C6 9.02 6 7.04 6 5 C8.64 5 11.28 5 14 5 C13.67 4.01 13.34 3.02 13 2 C9.37 1.67 5.74 1.34 2 1 C1.67 9.25 1.34 17.5 1 26 C2.32 26.33 3.64 26.66 5 27 C3.35 27 1.7 27 0 27 C0 18.09 0 9.18 0 0 Z " fill="#113465" transform="translate(373,252)"/>
<path d="M0 0 C1.890625 0.76953125 1.890625 0.76953125 3.890625 2.76953125 C2.900625 2.76953125 1.910625 2.76953125 0.890625 2.76953125 C1.220625 4.41953125 1.550625 6.06953125 1.890625 7.76953125 C1.230625 7.76953125 0.570625 7.76953125 -0.109375 7.76953125 C-0.439375 7.10953125 -0.769375 6.44953125 -1.109375 5.76953125 C-3.089375 5.76953125 -5.069375 5.76953125 -7.109375 5.76953125 C-7.109375 8.40953125 -7.109375 11.04953125 -7.109375 13.76953125 C-3.479375 13.76953125 0.150625 13.76953125 3.890625 13.76953125 C2.03504527 15.82392309 0.46136831 17.49336513 -2.046875 18.70703125 C-4.109375 18.76953125 -4.109375 18.76953125 -6.859375 17.95703125 C-9.49478527 15.39482682 -9.60116502 14.52893591 -9.859375 10.95703125 C-9.66721027 6.86152051 -8.88717565 4.86186547 -5.859375 2.08203125 C-3.68188217 0.35585638 -2.78962673 -0.30479255 0 0 Z " fill="#427AA1" transform="translate(182.109375,286.23046875)"/>
<path d="M0 0 C0.1875 2.875 0.1875 2.875 0 6 C-3.6441774 8.4294516 -5.71241272 8.16179575 -10 8 C-10 6.02 -10 4.04 -10 2 C-10.99 2 -11.98 2 -13 2 C-13 1.34 -13 0.68 -13 0 C-8.12512139 -2.74211922 -5.08887875 -1.55253928 0 0 Z " fill="#264082" transform="translate(155,188)"/>
<path d="M0 0 C5.44012376 1.89972576 5.44012376 1.89972576 8 4 C9.42721064 7.42646116 9.65167456 10.35414505 9 14 C7.27917165 16.89271862 6.15301171 17.3948304 3 19 C-0.73696902 18.34053488 -2.84619006 17.10253996 -6 15 C-6.51171875 12.6171875 -6.51171875 12.6171875 -6.6875 9.875 C-6.75324219 8.96492188 -6.81898438 8.05484375 -6.88671875 7.1171875 C-6.92410156 6.41851562 -6.96148437 5.71984375 -7 5 C-4.69 3.35 -2.38 1.7 0 0 Z M-3 4 C-4.58989591 8.02150141 -5.61027397 10.85929551 -4 15 C-1.10189884 17.09862498 0.28378861 17 4 17 C6.47722993 15.60720318 6.47722993 15.60720318 8 13 C8.14192191 10.07640864 7.66801474 7.91063567 7 5 C4.71294169 3.85647084 3.40735238 3.89665561 0.875 3.9375 C-0.40375 3.958125 -1.6825 3.97875 -3 4 Z " fill="#324170" transform="translate(162,288)"/>
<path d="M0 0 C0.99 0.66 1.98 1.32 3 2 C2.875 4.3125 2.875 4.3125 2 7 C-0.6875 9 -0.6875 9 -4 10 C-7.375 8.6875 -7.375 8.6875 -10 7 C-7.3665735 1.37404339 -6.37998798 -0.46682839 0 0 Z " fill="#619ECD" transform="translate(143,177)"/>
<path d="M0 0 C0.66 0 1.32 0 2 0 C2.22142255 1.95689659 2.4267568 3.91561952 2.625 5.875 C2.74101563 6.96554688 2.85703125 8.05609375 2.9765625 9.1796875 C2.98429687 10.11039063 2.99203125 11.04109375 3 12 C2.34 12.66 1.68 13.32 1 14 C-1.125 13.625 -1.125 13.625 -3 13 C-3 12.34 -3 11.68 -3 11 C-3.99 10.67 -4.98 10.34 -6 10 C-6 7.69 -6 5.38 -6 3 C-5.195625 2.87625 -4.39125 2.7525 -3.5625 2.625 C-2.716875 2.41875 -1.87125 2.2125 -1 2 C-0.67 1.34 -0.34 0.68 0 0 Z " fill="#3780B7" transform="translate(81,232)"/>
<path d="M0 0 C-0.3125 3.375 -0.3125 3.375 -1 7 C-4.6441774 9.4294516 -6.71241272 9.16179575 -11 9 C-10.67 6.03 -10.34 3.06 -10 0 C-5.99998285 -1.00000429 -3.94476647 -0.80688405 0 0 Z " fill="#3C83B5" transform="translate(133,178)"/>
<path d="M0 0 C1.9375 0.875 1.9375 0.875 3.9375 3.875 C4.32763716 5.8646995 4.66952649 7.86519869 4.9375 9.875 C4.31875 9.978125 3.7 10.08125 3.0625 10.1875 C0.57223516 10.75025373 0.57223516 10.75025373 -1.0625 13.875 C-1.7225 13.215 -2.3825 12.555 -3.0625 11.875 C-3.0625 10.885 -3.0625 9.895 -3.0625 8.875 C-3.7225 8.875 -4.3825 8.875 -5.0625 8.875 C-5.42503776 3.43693353 -5.42503776 3.43693353 -3.8125 0.9375 C-2.0625 -0.125 -2.0625 -0.125 0 0 Z " fill="#5694C3" transform="translate(84.0625,273.125)"/>
<path d="M0 0 C3.55780196 0.60990891 6.6828589 1.5783681 10 3 C7.39417629 3.93065133 6.35801776 4.14917407 3.75 3.0625 C3.1725 2.711875 2.595 2.36125 2 2 C-0.72352192 4.84123027 -0.72352192 4.84123027 -3 8 C-2.9593157 10.80485127 -2.9593157 10.80485127 -2 13 C-1.01 13.33 -0.02 13.66 1 14 C1 14.66 1 15.32 1 16 C1.99 16 2.98 16 4 16 C4 17.32 4 18.64 4 20 C5.98 19.67 7.96 19.34 10 19 C9.34 19.99 8.68 20.98 8 22 C3.64765339 21.49391318 0.40777091 20.83980909 -3 18 C-4.52773698 14.07153347 -5.7528993 10.19472469 -5 6 C-3.48994154 3.79015835 -1.83371056 1.97123885 0 0 Z " fill="#6A99BC" transform="translate(112,258)"/>
<path d="M0 0 C0.78375 0.185625 1.5675 0.37125 2.375 0.5625 C2.705 0.2325 3.035 -0.0975 3.375 -0.4375 C9.83653846 -0.79647436 9.83653846 -0.79647436 13.375 1.5625 C13.375 2.2225 13.375 2.8825 13.375 3.5625 C12.71113281 3.59988281 12.04726562 3.63726562 11.36328125 3.67578125 C6.30463621 4.0524103 2.53319181 4.37455295 -1.625 7.5625 C-1.625 6.9025 -1.625 6.2425 -1.625 5.5625 C-2.615 5.2325 -3.605 4.9025 -4.625 4.5625 C-4.955 3.5725 -5.285 2.5825 -5.625 1.5625 C-2.625 -0.4375 -2.625 -0.4375 0 0 Z " fill="#2E4876" transform="translate(145.625,169.4375)"/>
<path d="M0 0 C2.7401296 1.01776242 5.02382225 2.01649233 7.4375 3.6875 C10.70643 5.36183 12.51170995 4.89235327 16 4 C16.103125 4.78375 16.20625 5.5675 16.3125 6.375 C16.77595022 9.33045181 16.77595022 9.33045181 20 11 C20 11.99 20 12.98 20 14 C20.804375 14.12375 21.60875 14.2475 22.4375 14.375 C23.283125 14.58125 24.12875 14.7875 25 15 C25.33 15.66 25.66 16.32 26 17 C16.34376259 14.9454814 8.35192816 8.36729492 1 2 C0.67 1.34 0.34 0.68 0 0 Z " fill="#6596B8" transform="translate(99,310)"/>
<path d="M0 0 C2.5 0.125 2.5 0.125 3.5 1.125 C3.57179964 2.64428038 3.58392007 4.16667482 3.5625 5.6875 C3.55347656 6.51378906 3.54445312 7.34007812 3.53515625 8.19140625 C3.52355469 8.82949219 3.51195312 9.46757812 3.5 10.125 C2.16666667 10.45833333 0.83333333 10.79166667 -0.5 11.125 C-1.61375 11.4034375 -1.61375 11.4034375 -2.75 11.6875 C-3.3275 11.831875 -3.905 11.97625 -4.5 12.125 C-4.5 10.805 -4.5 9.485 -4.5 8.125 C-5.49 7.795 -6.48 7.465 -7.5 7.125 C-6.695625 6.67125 -5.89125 6.2175 -5.0625 5.75 C-2.41143428 4.37774335 -2.41143428 4.37774335 -1.5 2.125 C-2.16 1.795 -2.82 1.465 -3.5 1.125 C-2.5 0.125 -2.5 0.125 0 0 Z " fill="#3881B6" transform="translate(133.5,187.875)"/>
<path d="M0 0 C4.69329073 1.44408946 4.69329073 1.44408946 6 3.8125 C6 6.86098792 4.70793985 8.54056661 3 11 C1.125 10.75 1.125 10.75 -1 10 C-2.60963543 7.77717012 -3.07214218 6.61320852 -2.75 3.875 C-2 2 -2 2 0 0 Z " fill="#273A71" transform="translate(168,308)"/>
<path d="M0 0 C0.66 0.33 1.32 0.66 2 1 C1.67 2.32 1.34 3.64 1 5 C1.99 5.33 2.98 5.66 4 6 C5.1875 8.0625 5.1875 8.0625 6 10 C5.195625 10.2475 4.39125 10.495 3.5625 10.75 C0.828919 11.72238859 0.828919 11.72238859 0.1875 14.125 C0.125625 14.74375 0.06375 15.3625 0 16 C-0.99 15.34 -1.98 14.68 -3 14 C-2.58846263 9.02906176 -2.20399168 4.55491614 0 0 Z " fill="#689BC7" transform="translate(196,264)"/>
<path d="M0 0 C3.95820859 0.56545837 6.6659053 1.80902348 10 4 C9.67 4.99 9.34 5.98 9 7 C8.67 6.01 8.34 5.02 8 4 C7.29875 4.309375 6.5975 4.61875 5.875 4.9375 C3 6 3 6 -0.25 6.5 C-1.1575 6.665 -2.065 6.83 -3 7 C-3.33 7.66 -3.66 8.32 -4 9 C-3.01 9.33 -2.02 9.66 -1 10 C-1.33 10.66 -1.66 11.32 -2 12 C-2.66 12 -3.32 12 -4 12 C-4.33 12.66 -4.66 13.32 -5 14 C-5.875 10.9375 -5.875 10.9375 -6 7 C-4.32219519 4.32583725 -2.27898575 2.17329365 0 0 Z " fill="#5C98BF" transform="translate(100,240)"/>
<path d="M0 0 C0 3 0 3 -2 6 C-2 6.99 -2 7.98 -2 9 C-0.68 8.34 0.64 7.68 2 7 C0.50902342 10.7952131 -1.75700849 12.61042731 -5 15 C-5.33 14.67 -5.66 14.34 -6 14 C-6 15.98 -6 17.96 -6 20 C-6.66 20 -7.32 20 -8 20 C-9.26953125 17.42578125 -9.26953125 17.42578125 -10 14 C-8.66192934 11.38700358 -7.46066757 9.4576722 -5.6875 7.1875 C-5.04264648 6.31061523 -5.04264648 6.31061523 -4.38476562 5.41601562 C-1.44294085 1.44294085 -1.44294085 1.44294085 0 0 Z " fill="#4A6A8F" transform="translate(92,196)"/>
<path d="M0 0 C5.76736276 1.51578124 9.75124549 2.63249255 13 8 C13 8.33 13 8.66 13 9 C3.66756032 8.20911528 3.66756032 8.20911528 0 5 C-0.3125 2.3125 -0.3125 2.3125 0 0 Z " fill="#648BAD" transform="translate(148,316)"/>
<path d="M0 0 C1.0725 0.2475 2.145 0.495 3.25 0.75 C3.25 1.08 3.25 1.41 3.25 1.75 C0.94 2.08 -1.37 2.41 -3.75 2.75 C-3.42 5.06 -3.09 7.37 -2.75 9.75 C-0.11 10.74 2.53 11.73 5.25 12.75 C5.25 11.76 5.25 10.77 5.25 9.75 C6.57 9.75 7.89 9.75 9.25 9.75 C9.58 9.09 9.91 8.43 10.25 7.75 C10.25 10.75 10.25 10.75 8.375 13.125 C4.81431784 14.97655472 3.91581239 14.87565549 0.125 14 C-2.82807122 12.97609286 -4.33217311 12.38544506 -6.0625 9.75390625 C-6.875 7.5625 -6.875 7.5625 -7.75 3.75 C-5.15187156 0.32047046 -4.43092205 -0.2953948 0 0 Z " fill="#43649D" transform="translate(187.75,173.25)"/>
<path d="M0 0 C-0.875 7.75 -0.875 7.75 -2 10 C-2.99 10 -3.98 10 -5 10 C-5 10.66 -5 11.32 -5 12 C-6.32 12.33 -7.64 12.66 -9 13 C-9.33 11.02 -9.66 9.04 -10 7 C-9.34 7 -8.68 7 -8 7 C-6.65080468 5.34614767 -5.31866272 3.678298 -4 2 C-1 0 -1 0 0 0 Z " fill="#5591C0" transform="translate(107,191)"/>
<path d="M0 0 C1.125 5.75 1.125 5.75 0 8 C-2.31 8 -4.62 8 -7 8 C-7 5.36 -7 2.72 -7 0 C-4.3333581 -1.33332095 -2.83319697 -0.67102033 0 0 Z " fill="#3682B7" transform="translate(182,292)"/>
<path d="M0 0 C3.56183352 1.50388527 4.69556843 2.33314989 6.3125 5.875 C6.93794899 8.71794995 7.17027469 11.10533028 7 14 C5.11608215 10.73454239 4.50712033 7.71888239 4 4 C3.01 4 2.02 4 1 4 C1 4.99 1 5.98 1 7 C0.34 7 -0.32 7 -1 7 C-1 5.68 -1 4.36 -1 3 C-1.66 3 -2.32 3 -3 3 C-3 2.34 -3 1.68 -3 1 C-4.093125 1.45375 -5.18625 1.9075 -6.3125 2.375 C-6.92738281 2.63023437 -7.54226562 2.88546875 -8.17578125 3.1484375 C-10.26533932 4.06806692 -10.26533932 4.06806692 -13 6 C-10.25224613 -0.64040518 -6.86855359 -1.68701316 0 0 Z " fill="#6A96B6" transform="translate(179,211)"/>
<path d="M0 0 C0.66 0.33 1.32 0.66 2 1 C1.34 3.64 0.68 6.28 0 9 C-0.66 9 -1.32 9 -2 9 C-2.33 10.98 -2.66 12.96 -3 15 C-3.99 15 -4.98 15 -6 15 C-6 12.36 -6 9.72 -6 7 C-5.34 7 -4.68 7 -4 7 C-3.896875 6.21625 -3.79375 5.4325 -3.6875 4.625 C-3 2 -3 2 0 0 Z " fill="#02367A" transform="translate(331,254)"/>
<path d="M0 0 C3.66172475 0.62678171 6.8818995 1.64451846 10.3125 3.0625 C11.19550781 3.42472656 12.07851562 3.78695313 12.98828125 4.16015625 C13.98408203 4.57587891 13.98408203 4.57587891 15 5 C14.67 5.66 14.34 6.32 14 7 C7.74892565 6.57045059 1.95795479 5.98598493 -4 4 C-4 3.34 -4 2.68 -4 2 C-1.69 2.33 0.62 2.66 3 3 C2.67 2.67 2.34 2.34 2 2 C1.34 1.34 0.68 0.68 0 0 Z " fill="#416890" transform="translate(133,325)"/>
<path d="M0 0 C0.05416188 1.60379341 0.09286638 3.20811406 0.125 4.8125 C0.14820313 5.70582031 0.17140625 6.59914063 0.1953125 7.51953125 C0 10 0 10 -2 13 C-2.99 12.67 -3.98 12.34 -5 12 C-5 8.37 -5 4.74 -5 1 C-2 0 -2 0 0 0 Z " fill="#03357D" transform="translate(360,252)"/>
<path d="M0 0 C1.98 0 3.96 0 6 0 C7 1 7 1 7.11352539 3.13305664 C7.10828857 4.04949951 7.10305176 4.96594238 7.09765625 5.91015625 C7.09443359 6.89951172 7.09121094 7.88886719 7.08789062 8.90820312 C7.07951172 9.94912109 7.07113281 10.99003906 7.0625 12.0625 C7.05798828 13.10728516 7.05347656 14.15207031 7.04882812 15.22851562 C7.03699913 17.8190666 7.02051689 20.40950559 7 23 C6.67 23 6.34 23 6 23 C6 16.07 6 9.14 6 2 C4.68 2 3.36 2 2 2 C2 8.27 2 14.54 2 21 C1.67 21 1.34 21 1 21 C0.67 14.07 0.34 7.14 0 0 Z " fill="#041F43" transform="translate(287,214)"/>
<path d="M0 0 C0.45375 0.495 0.9075 0.99 1.375 1.5 C2.87635519 3.22609337 2.87635519 3.22609337 5 3 C5.33 2.34 5.66 1.68 6 1 C6.70074844 4.153368 7 6.72724974 7 10 C8.65 10 10.3 10 12 10 C11.67 10.66 11.34 11.32 11 12 C8.6875 11.8125 8.6875 11.8125 6 11 C5.525625 10.154375 5.05125 9.30875 4.5625 8.4375 C4.046875 7.633125 3.53125 6.82875 3 6 C-0.12635209 5.58253392 -0.12635209 5.58253392 -3 6 C-3 4.68 -3 3.36 -3 2 C-2.01 1.34 -1.02 0.68 0 0 Z M-1 3 C0 5 0 5 0 5 Z " fill="#4772A7" transform="translate(115,177)"/>
<path d="M0 0 C-0.66 1.65 -1.32 3.3 -2 5 C-4.97 5 -7.94 5 -11 5 C-11 5.66 -11 6.32 -11 7 C-11.99 7.33 -12.98 7.66 -14 8 C-14.33 6.68 -14.66 5.36 -15 4 C-9.77228537 0.95842058 -6.07328688 -0.50610724 0 0 Z " fill="#5A94BE" transform="translate(131,173)"/>
<path d="M0 0 C1.4540625 0.0309375 1.4540625 0.0309375 2.9375 0.0625 C3.63449552 1.51631897 4.31983866 2.97572953 5 4.4375 C5.38285156 5.24960938 5.76570313 6.06171875 6.16015625 6.8984375 C6.41667969 7.61257812 6.67320312 8.32671875 6.9375 9.0625 C6.6075 9.7225 6.2775 10.3825 5.9375 11.0625 C1.9375 5.4375 1.9375 5.4375 1.9375 2.0625 C0.6175 2.0625 -0.7025 2.0625 -2.0625 2.0625 C-2.0625 2.7225 -2.0625 3.3825 -2.0625 4.0625 C-2.7225 4.0625 -3.3825 4.0625 -4.0625 4.0625 C-4.145 4.8875 -4.2275 5.7125 -4.3125 6.5625 C-5.22697269 10.83003921 -6.98473178 14.25486894 -9.0625 18.0625 C-9.3925 17.4025 -9.7225 16.7425 -10.0625 16.0625 C-9.17838959 13.48335672 -8.2365129 11.01063753 -7.1875 8.5 C-6.90519531 7.80197266 -6.62289063 7.10394531 -6.33203125 6.38476562 C-3.74999906 0.07653059 -3.74999906 0.07653059 0 0 Z " fill="#113668" transform="translate(271.0625,213.9375)"/>
<path d="M0 0 C0.66 1.32 1.32 2.64 2 4 C5.3 4 8.6 4 12 4 C12 5.32 12 6.64 12 8 C10.41676312 8.027193 8.83338938 8.04648306 7.25 8.0625 C5.92742187 8.07990234 5.92742187 8.07990234 4.578125 8.09765625 C2.2181162 8.00826198 0.25501476 7.66912821 -2 7 C-2 6.34 -2 5.68 -2 5 C-1.34 5 -0.68 5 0 5 C-0.33 4.01 -0.66 3.02 -1 2 C-0.67 1.34 -0.34 0.68 0 0 Z " fill="#04377E" transform="translate(377,269)"/>
<path d="M0 0 C2.6875 2 2.6875 2 4 4 C-2 2.5 -2 2.5 -8 1 C-8 1.66 -8 2.32 -8 3 C-9.1446875 3.2165625 -9.1446875 3.2165625 -10.3125 3.4375 C-13.08172908 3.9632594 -13.08172908 3.9632594 -16 5 C-16 4.34 -16 3.68 -16 3 C-11.49745355 -1.03676578 -5.70120244 -0.83325266 0 0 Z M-11 3 C-10.67 3.66 -10.34 4.32 -10 5 C-7.69 5 -5.38 5 -3 5 C-3 5.33 -3 5.66 -3 6 C-4.670625 6.433125 -4.670625 6.433125 -6.375 6.875 C-10.00291092 7.69241329 -10.00291092 7.69241329 -12 10 C-11.67 7.69 -11.34 5.38 -11 3 Z " fill="#10376B" transform="translate(343,252)"/>
<path d="M0 0 C0.66 0 1.32 0 2 0 C2.99 3.63 3.98 7.26 5 11 C3.02 12.98 1.04 14.96 -1 17 C-3.31 16.34 -5.62 15.68 -8 15 C-8 14.67 -8 14.34 -8 14 C-7.05125 13.71125 -6.1025 13.4225 -5.125 13.125 C-1.94788422 12.23174891 -1.94788422 12.23174891 0 10 C0.33 10.33 0.66 10.66 1 11 C1.12469099 5.42169984 1.12469099 5.42169984 0 0 Z " fill="#437BA4" transform="translate(136,279)"/>
<path d="M0 0 C0.66 0 1.32 0 2 0 C2 0.66 2 1.32 2 2 C2.99 2 3.98 2 5 2 C4.67 4.97 4.34 7.94 4 11 C7.63 11.33 11.26 11.66 15 12 C14.01 13.485 14.01 13.485 13 15 C8.77698083 14.37896777 5.43329595 13.59404583 2 11 C0.87095514 7.37742477 0.37117379 3.76933381 0 0 Z " fill="#4669A7" transform="translate(141,278)"/>
<path d="M0 0 C1.98 0 3.96 0 6 0 C6 2.97 6 5.94 6 9 C5.01 8.67 4.02 8.34 3 8 C3.33 6.35 3.66 4.7 4 3 C3.34 3 2.68 3 2 3 C1.67 9.27 1.34 15.54 1 22 C0.67 22 0.34 22 0 22 C0 14.74 0 7.48 0 0 Z " fill="#103A71" transform="translate(289,252)"/>
<path d="M0 0 C-0.66 0.66 -1.32 1.32 -2 2 C-2.99 2 -3.98 2 -5 2 C-5.0825 2.5775 -5.165 3.155 -5.25 3.75 C-6.23506825 6.70520475 -7.58102904 8.06482323 -10 10 C-11.32 10 -12.64 10 -14 10 C-14 9.01 -14 8.02 -14 7 C-13.34 7 -12.68 7 -12 7 C-11.7525 6.401875 -11.505 5.80375 -11.25 5.1875 C-8.4393852 0.2689241 -5.48069456 -0.37368372 0 0 Z " fill="#03387E" transform="translate(275,252)"/>
<path d="M0 0 C0.66 0.66 1.32 1.32 2 2 C2.99 1.979375 3.98 1.95875 5 1.9375 C5.99 1.958125 6.98 1.97875 8 2 C8.99 3.485 8.99 3.485 10 5 C8.375 6.5625 8.375 6.5625 6 8 C3.99199544 7.71887936 1.98985949 7.38932033 0 7 C-0.66 7.66 -1.32 8.32 -2 9 C-3 6 -3 6 -1.5625 2.8125 C-1.046875 1.884375 -0.53125 0.95625 0 0 Z " fill="#3769B7" transform="translate(110,180)"/>
<path d="M0 0 C0.66 0 1.32 0 2 0 C2.66 3.3 3.32 6.6 4 10 C0.38860104 13.61139896 0.38860104 13.61139896 -2 15 C-5.875 14.8125 -5.875 14.8125 -9 14 C-8.67 13.34 -8.34 12.68 -8 12 C-6.35 12.33 -4.7 12.66 -3 13 C-2.71125 12.360625 -2.4225 11.72125 -2.125 11.0625 C-1 9 -1 9 1 8 C0.67 7.67 0.34 7.34 0 7 C-0.04092937 4.66702567 -0.04241723 2.33294775 0 0 Z " fill="#283B6B" transform="translate(220,171)"/>
<path d="M0 0 C3.14737182 0.69941596 6.02588876 1.76078698 9 3 C8.1875 4.9375 8.1875 4.9375 7 7 C4 8 4 8 1 7 C1 6.01 1 5.02 1 4 C0.34 3.67 -0.32 3.34 -1 3 C-0.67 2.01 -0.34 1.02 0 0 Z " fill="#3979A9" transform="translate(165,175)"/>
<path d="M0 0 C5.33415081 1.08491203 9.08517924 1.96284109 13 6 C13 6.99 13 7.98 13 9 C12.43796875 8.70351563 11.8759375 8.40703125 11.296875 8.1015625 C8.98032695 6.99056497 6.69290908 6.16535294 4.25 5.375 C3.45078125 5.11460937 2.6515625 4.85421875 1.828125 4.5859375 C1.22484375 4.39257812 0.6215625 4.19921875 0 4 C0 2.68 0 1.36 0 0 Z " fill="#5F9FCE" transform="translate(126,312)"/>
<path d="M0 0 C1.98 0.66 3.96 1.32 6 2 C7.05702499 12.21790827 7.05702499 12.21790827 4.58203125 16.390625 C2.77790151 18.28323018 1.31726953 19.78013657 -1 21 C-3.234375 20.66796875 -3.234375 20.66796875 -5 20 C-4.01 19.34 -3.02 18.68 -2 18 C-1.154375 17.13375 -0.30875 16.2675 0.5625 15.375 C3 13 3 13 5 13 C4.67 9.7 4.34 6.4 4 3 C2.68 2.67 1.36 2.34 0 2 C0 1.34 0 0.68 0 0 Z " fill="#6D94B1" transform="translate(113,220)"/>
<path d="M0 0 C0.50789062 0.26296875 1.01578125 0.5259375 1.5390625 0.796875 C1.5390625 1.456875 1.5390625 2.116875 1.5390625 2.796875 C0.3221875 2.61125 -0.8946875 2.425625 -2.1484375 2.234375 C-5.49071689 1.80694318 -8.18062167 1.87428617 -11.4609375 2.796875 C-11.1309375 5.436875 -10.8009375 8.076875 -10.4609375 10.796875 C-11.1209375 10.796875 -11.7809375 10.796875 -12.4609375 10.796875 C-12.81569871 7.72227786 -12.95417724 4.86125805 -12.4609375 1.796875 C-8.17479405 -2.9178828 -5.32640398 -2.43378759 0 0 Z " fill="#35477F" transform="translate(153.4609375,185.203125)"/>
<path d="M0 0 C0.99 0.99 1.98 1.98 3 3 C3.66 2.34 4.32 1.68 5 1 C6.32 1.66 7.64 2.32 9 3 C9 3.66 9 4.32 9 5 C7.35 5 5.7 5 4 5 C3.67 7.64 3.34 10.28 3 13 C-0.01111938 8.48332093 -0.10067926 5.3360009 0 0 Z " fill="#5D90B6" transform="translate(76,269)"/>
<path d="M0 0 C0.87398437 0.32097656 0.87398437 0.32097656 1.765625 0.6484375 C1.435625 1.3084375 1.105625 1.9684375 0.765625 2.6484375 C-1.296875 3.2734375 -1.296875 3.2734375 -3.234375 3.6484375 C-3.564375 5.2984375 -3.894375 6.9484375 -4.234375 8.6484375 C-5.554375 8.6484375 -6.874375 8.6484375 -8.234375 8.6484375 C-8.234375 10.6284375 -8.234375 12.6084375 -8.234375 14.6484375 C-8.564375 14.6484375 -8.894375 14.6484375 -9.234375 14.6484375 C-9.79831623 10.62028586 -10.28310683 7.10452798 -7.81640625 3.6796875 C-3.19084551 -0.50205611 -3.19084551 -0.50205611 0 0 Z " fill="#6F9BBF" transform="translate(122.234375,236.3515625)"/>
<path d="M0 0 C3.625 -0.1875 3.625 -0.1875 7 0 C5.94124926 3.40312738 4.99097846 6.01353231 3 9 C2.34 9 1.68 9 1 9 C1.33 7.02 1.66 5.04 2 3 C1.34 2.67 0.68 2.34 0 2 C-0.66 3.32 -1.32 4.64 -2 6 C-2 3 -2 3 0 0 Z " fill="#16336A" transform="translate(344,268)"/>
<path d="M0 0 C0.33 0 0.66 0 1 0 C1.47914625 2.7151621 1.41122838 4.39631121 -0.16015625 6.703125 C-1.6917983 8.37970505 -3.09963117 9.7538565 -5 11 C-7.875 10.875 -7.875 10.875 -10 10 C-8.33333333 8.33333333 -6.66666667 6.66666667 -5 5 C-4.1646875 4.1028125 -4.1646875 4.1028125 -3.3125 3.1875 C-2 2 -2 2 0 2 C0 1.34 0 0.68 0 0 Z " fill="#6A92B5" transform="translate(110,252)"/>
<path d="M0 0 C0.66 0.33 1.32 0.66 2 1 C1.57320174 4.99796735 1.15183864 8.64629273 -1.515625 11.78125 C-3.31473321 13.18924773 -4.86032732 14.19934829 -7 15 C-9.875 14.5625 -9.875 14.5625 -12 13 C-12.8125 10.875 -12.8125 10.875 -13 9 C-12.62875 9.515625 -12.2575 10.03125 -11.875 10.5625 C-9.98870213 12.3105536 -9.98870213 12.3105536 -6.9375 12 C-3.78570429 11.29951799 -3.78570429 11.29951799 -2.625 8.4375 C-2.41875 7.633125 -2.2125 6.82875 -2 6 C-1.34 6 -0.68 6 0 6 C0 4.02 0 2.04 0 0 Z " fill="#4569A3" transform="translate(121,190)"/>
<path d="M0 0 C2.5625 2.125 2.5625 2.125 5 5 C4.8125 8.3125 4.8125 8.3125 4 11 C-4.35010941 9.66958425 -4.35010941 9.66958425 -7.0625 6.875 C-7.371875 6.25625 -7.68125 5.6375 -8 5 C-7.195625 5.4640625 -7.195625 5.4640625 -6.375 5.9375 C-3.6015043 7.17827439 -0.99957163 7.5909675 2 8 C1.34 5.36 0.68 2.72 0 0 Z " fill="#4B7EA7" transform="translate(120,303)"/>
<path d="M0 0 C1.9375 0.375 1.9375 0.375 4 1 C4.33 1.66 4.66 2.32 5 3 C5.99 3.33 6.98 3.66 8 4 C8.33 5.65 8.66 7.3 9 9 C7.68 9 6.36 9 5 9 C5 8.34 5 7.68 5 7 C4.360625 6.773125 3.72125 6.54625 3.0625 6.3125 C1 5 1 5 0.25 2.375 C0.1675 1.59125 0.085 0.8075 0 0 Z " fill="#5F9AC8" transform="translate(102,304)"/>
<path d="M0 0 C0.66 0 1.32 0 2 0 C2 1.32 2 2.64 2 4 C3.32 4 4.64 4 6 4 C5.60000283 6.31998359 5.09432121 7.86323424 3.75 9.8125 C2 11 2 11 -0.6875 10.6875 C-1.450625 10.460625 -2.21375 10.23375 -3 10 C-1.68 9.01 -0.36 8.02 1 7 C0.67 6.67 0.34 6.34 0 6 C-0.04080783 4.00041636 -0.04254356 1.99954746 0 0 Z " fill="#3E7CAD" transform="translate(148,298)"/>
<path d="M0 0 C1.4589426 0.47730838 2.91713496 0.95691042 4.375 1.4375 C5.18710938 1.70433594 5.99921875 1.97117187 6.8359375 2.24609375 C9 3 9 3 11 4 C10.67 5.32 10.34 6.64 10 8 C9.67 7.01 9.34 6.02 9 5 C7.68 5 6.36 5 5 5 C5 4.34 5 3.68 5 3 C1.45481116 4.39759905 1.45481116 4.39759905 -2 6 C-2.66 5.34 -3.32 4.68 -4 4 C-2.68 2.68 -1.36 1.36 0 0 Z " fill="#486AA5" transform="translate(148,272)"/>
<path d="M0 0 C0.66 0 1.32 0 2 0 C2.4375 2.625 2.4375 2.625 2 6 C0.03880188 8.62630009 -2.07135617 10.5152185 -5 12 C-8.4375 11.375 -8.4375 11.375 -11 10 C-7.25 8.875 -7.25 8.875 -5 10 C-5 9.34 -5 8.68 -5 8 C-4.01 8 -3.02 8 -2 8 C-1.855625 7.236875 -1.71125 6.47375 -1.5625 5.6875 C-1 3 -1 3 0 0 Z " fill="#2E4071" transform="translate(197,247)"/>
<path d="M0 0 C2 4 2 4 1.53125 5.96484375 C-1.0074884 10.82114257 -3.56045868 13.77124267 -8 17 C-9.32 16.34 -10.64 15.68 -12 15 C-11.67 14.01 -11.34 13.02 -11 12 C-10.67 12.66 -10.34 13.32 -10 14 C-8.01508358 13.73323796 -8.01508358 13.73323796 -6 13 C-5.67 12.01 -5.34 11.02 -5 10 C-4.01 10 -3.02 10 -2 10 C-1.34 6.7 -0.68 3.4 0 0 Z " fill="#4B749D" transform="translate(107,191)"/>
<path d="M0 0 C1.32 0 2.64 0 4 0 C6.97413931 3.61145488 7.32019737 6.4105044 7 11 C5.02 11.99 5.02 11.99 3 13 C3 11.68 3 10.36 3 9 C3.66 9 4.32 9 5 9 C5 7.68 5 6.36 5 5 C3.68 4.67 2.36 4.34 1 4 C1 3.67 1 3.34 1 3 C0.67 2.01 0.34 1.02 0 0 Z " fill="#3F68AE" transform="translate(153,277)"/>
<path d="M0 0 C0.66 0 1.32 0 2 0 C1.875 2.25 1.875 2.25 1 5 C-1.94593325 7.54421508 -3.72758048 9.02959115 -7.6875 8.9375 C-10.10155333 7.95882973 -11.3530685 6.99365392 -13 5 C-11.39125 5.2784375 -11.39125 5.2784375 -9.75 5.5625 C-6.59608454 5.9304568 -4.90181508 6.04465343 -2 5 C-1.855625 4.360625 -1.71125 3.72125 -1.5625 3.0625 C-1 1 -1 1 0 0 Z " fill="#7199B8" transform="translate(229,267)"/>
<path d="M0 0 C-0.33 1.32 -0.66 2.64 -1 4 C-1.66 4 -2.32 4 -3 4 C-3 5.65 -3 7.3 -3 9 C-3.66 8.34 -4.32 7.68 -5 7 C-5.70125 6.360625 -6.4025 5.72125 -7.125 5.0625 C-9 3 -9 3 -9 0 C-5.93109813 -1.53445094 -3.29905734 -0.54984289 0 0 Z " fill="#67A4CF" transform="translate(163,265)"/>
<path d="M0 0 C1.32 0.66 2.64 1.32 4 2 C4 2.99 4 3.98 4 5 C3.34 5 2.68 5 2 5 C2 5.99 2 6.98 2 8 C2.66 8 3.32 8 4 8 C4.33 8.99 4.66 9.98 5 11 C5.99 11.33 6.98 11.66 8 12 C8 12.66 8 13.32 8 14 C5.42224929 13.624653 4.25918435 13.28516942 2.48046875 11.328125 C-1.04169526 5.66712423 -1.04169526 5.66712423 -0.8125 2 C-0.544375 1.34 -0.27625 0.68 0 0 Z " fill="#477FA4" transform="translate(106,283)"/>
<path d="M0 0 C1.98 0.66 3.96 1.32 6 2 C6.66 1.34 7.32 0.68 8 0 C9.32 1.32 10.64 2.64 12 4 C11.67 4.66 11.34 5.32 11 6 C7.7 5.67 4.4 5.34 1 5 C0.67 3.35 0.34 1.7 0 0 Z " fill="#4778AC" transform="translate(125,323)"/>
<path d="M0 0 C1.5625 1.625 1.5625 1.625 3 4 C2.6875 7.25 2.6875 7.25 2 10 C3.97746603 10.73080266 5.98072489 11.39421747 8 12 C8.66 11.67 9.32 11.34 10 11 C9.34 12.32 8.68 13.64 8 15 C5.08482708 13.92598892 3.22189824 13.22189824 1 11 C-0.33034463 7.4080695 -0.07279423 3.78529987 0 0 Z " fill="#5B85A5" transform="translate(81,252)"/>
<path d="M0 0 C0 0.66 0 1.32 0 2 C-0.66 2 -1.32 2 -2 2 C-2.33 2.99 -2.66 3.98 -3 5 C-3.66 5 -4.32 5 -5 5 C-5.33 5.99 -5.66 6.98 -6 8 C-6.66 7.67 -7.32 7.34 -8 7 C-8 5.35 -8 3.7 -8 2 C-4.91190305 0.23537317 -3.76687864 0 0 0 Z " fill="#417DAB" transform="translate(108,188)"/>
<path d="M0 0 C5.19822672 1.36144033 8.09543873 3.46730171 12 7 C11.67 7.99 11.34 8.98 11 10 C10.319375 9.4225 9.63875 8.845 8.9375 8.25 C5.74103635 5.80164486 2.52536562 3.93549485 -1 2 C-0.67 1.34 -0.34 0.68 0 0 Z " fill="#5D94C4" transform="translate(120,316)"/>
<path d="M0 0 C0.66 0 1.32 0 2 0 C1.62669176 2.72574271 1.20805399 3.80822085 -0.84765625 5.703125 C-1.94400391 6.46882813 -1.94400391 6.46882813 -3.0625 7.25 C-3.79597656 7.77078125 -4.52945313 8.2915625 -5.28515625 8.828125 C-5.85105469 9.21484375 -6.41695312 9.6015625 -7 10 C-7.125 5.25 -7.125 5.25 -6 3 C-5.34 3 -4.68 3 -4 3 C-3.67 2.34 -3.34 1.68 -3 1 C-2.34 1.66 -1.68 2.32 -1 3 C-0.67 2.01 -0.34 1.02 0 0 Z " fill="#6D99BB" transform="translate(167,264)"/>
<path d="M0 0 C3 1 3 1 5 4 C5 5.32 5 6.64 5 8 C4.34 8 3.68 8 3 8 C2.67 7.34 2.34 6.68 2 6 C0.68 6 -0.64 6 -2 6 C-1.34 4.02 -0.68 2.04 0 0 Z " fill="#3B68AB" transform="translate(192,175)"/>
<path d="M0 0 C6.625 -0.25 6.625 -0.25 10 2 C10 2.66 10 3.32 10 4 C7.03 4 4.06 4 1 4 C0.67 2.68 0.34 1.36 0 0 Z " fill="#557EA7" transform="translate(149,169)"/>
<path d="M0 0 C2.5654594 2.5654594 2.54046087 4.47686668 3 8 C3.99 8 4.98 8 6 8 C6.33 8.66 6.66 9.32 7 10 C7.99 10 8.98 10 10 10 C9.67 10.99 9.34 11.98 9 13 C6.36 12.01 3.72 11.02 1 10 C0.67 6.7 0.34 3.4 0 0 Z " fill="#6F97B8" transform="translate(149,260)"/>
<path d="M0 0 C3.88282378 0.22187564 4.96330697 0.96247304 7.75 3.8125 C10.64367816 7.91187739 10.64367816 7.91187739 11 11 C8.69 11 6.38 11 4 11 C5.32 10.67 6.64 10.34 8 10 C4.97868242 4.15648093 4.97868242 4.15648093 0 0 Z " fill="#12356A" transform="translate(275,252)"/>
<path d="M0 0 C2.9375 0.8125 2.9375 0.8125 5.9375 2.8125 C6.23046875 5.1953125 6.23046875 5.1953125 6.125 7.9375 C6.09792969 8.84757813 6.07085937 9.75765625 6.04296875 10.6953125 C6.00816406 11.39398438 5.97335938 12.09265625 5.9375 12.8125 C5.6075 12.8125 5.2775 12.8125 4.9375 12.8125 C4.6075 9.8425 4.2775 6.8725 3.9375 3.8125 C0.49215996 2.95116499 -1.66629646 2.87561626 -5.0625 3.8125 C-5.7225 3.4825 -6.3825 3.1525 -7.0625 2.8125 C-4.54227966 0.38921121 -3.56612094 -0.21833394 0 0 Z " fill="#4F81A4" transform="translate(123.0625,201.1875)"/>
<path d="M0 0 C4.75 1.875 4.75 1.875 7 3 C7.4140625 5.28515625 7.4140625 5.28515625 7.625 8.0625 C7.69976562 8.98160156 7.77453125 9.90070313 7.8515625 10.84765625 C7.90054688 11.55792969 7.94953125 12.26820313 8 13 C6.86702642 10.7859808 5.86912445 8.64827195 5 6.3125 C4.22765821 3.84572401 4.22765821 3.84572401 2 3 C1.67 3.66 1.34 4.32 1 5 C0.01 4.67 -0.98 4.34 -2 4 C-1.34 2.68 -0.68 1.36 0 0 Z " fill="#5581A6" transform="translate(85,244)"/>
<path d="M0 0 C-0.66 0 -1.32 0 -2 0 C-1.2575 1.1446875 -1.2575 1.1446875 -0.5 2.3125 C1 5 1 5 1 8 C0.01 8.33 -0.98 8.66 -2 9 C-2.144375 8.236875 -2.28875 7.47375 -2.4375 6.6875 C-2.9632594 3.91827092 -2.9632594 3.91827092 -4 1 C-5.65 1 -7.3 1 -9 1 C-5.66794923 -2.33205077 -3.95714908 -2.63809939 0 0 Z " fill="#334F89" transform="translate(159,174)"/>
<path d="M0 0 C0.99 0.33 1.98 0.66 3 1 C4.1875 4.0625 4.1875 4.0625 5 7 C4.34 7 3.68 7 3 7 C2.01 8.485 2.01 8.485 1 10 C0.34 9.67 -0.32 9.34 -1 9 C-0.7215625 8.1028125 -0.7215625 8.1028125 -0.4375 7.1875 C0.22093687 4.83591238 0.22093687 4.83591238 -1 2 C-0.67 1.34 -0.34 0.68 0 0 Z " fill="#5B97C6" transform="translate(89,252)"/>
<path d="M0 0 C2.97 0.495 2.97 0.495 6 1 C5.34 1.37125 4.68 1.7425 4 2.125 C1.64696955 3.90894778 1.64696955 3.90894778 1.75 7.1875 C1.8325 8.115625 1.915 9.04375 2 10 C0.68 8.68 -0.64 7.36 -2 6 C-1.34 4.02 -0.68 2.04 0 0 Z " fill="#467FA8" transform="translate(110,298)"/>
<path d="M0 0 C2.96052484 3.36423277 3.92289822 6.69159287 5 11 C4.01 11.495 4.01 11.495 3 12 C2.67 10.68 2.34 9.36 2 8 C0.35 7.67 -1.3 7.34 -3 7 C-3 6.34 -3 5.68 -3 5 C-2.01 5 -1.02 5 0 5 C0 3.35 0 1.7 0 0 Z " fill="#3F77A5" transform="translate(118,283)"/>
<path d="M0 0 C1.32 0.66 2.64 1.32 4 2 C2.68 2.33 1.36 2.66 0 3 C-0.33 4.32 -0.66 5.64 -1 7 C-1.66 7 -2.32 7 -3 7 C-2.34 9.97 -1.68 12.94 -1 16 C-3.7379015 13.2620985 -3.74343776 11.02468995 -4.11328125 7.265625 C-3.94472697 3.89453936 -2.39457979 2.24945375 0 0 Z " fill="#5081A6" transform="translate(95,262)"/>
<path d="M0 0 C2.50037734 2.17424117 3.43628586 3.73045798 4 7 C0.75 7.3125 0.75 7.3125 -3 7 C-5.4375 4.5 -5.4375 4.5 -7 2 C-5.68 2 -4.36 2 -3 2 C-3 2.99 -3 3.98 -3 5 C-1.68 5 -0.36 5 1 5 C0.67 3.35 0.34 1.7 0 0 Z " fill="#113567" transform="translate(347,256)"/>
<path d="M0 0 C0.66 0.33 1.32 0.66 2 1 C-1.43523316 4.78756477 -1.43523316 4.78756477 -4 6 C-7.25197557 5.5452522 -10.04332822 4.39949131 -13 3 C-13 2.67 -13 2.34 -13 2 C-9.7 2.33 -6.4 2.66 -3 3 C-3 2.34 -3 1.68 -3 1 C-2.01 0.67 -1.02 0.34 0 0 Z " fill="#476BA4" transform="translate(151,250)"/>
<path d="M0 0 C0.99 0.66 1.98 1.32 3 2 C2.01 3.485 2.01 3.485 1 5 C1.99 5.99 2.98 6.98 4 8 C2.125 8.625 2.125 8.625 0 9 C-2 7 -2 7 -2.25 4.5 C-2 2 -2 2 0 0 Z " fill="#2F4374" transform="translate(149,174)"/>
<path d="M0 0 C0.66 1.98 1.32 3.96 2 6 C0.35 6 -1.3 6 -3 6 C-2.67 4.68 -2.34 3.36 -2 2 C-2.99 2.495 -2.99 2.495 -4 3 C-6.6723621 3.13415472 -9.32250488 3.04318541 -12 3 C-8.04953338 0.80529632 -4.51236303 0 0 0 Z " fill="#5684AF" transform="translate(140,170)"/>
<path d="M0 0 C5.28798182 0.41474367 8.11690718 1.35224614 12 5 C12.33 4.34 12.66 3.68 13 3 C13 3.99 13 4.98 13 6 C10.03 5.67 7.06 5.34 4 5 C3.67 4.01 3.34 3.02 3 2 C2.01 1.67 1.02 1.34 0 1 C0 0.67 0 0.34 0 0 Z " fill="#5B96BE" transform="translate(127,316)"/>
<path d="M0 0 C0.66 0.33 1.32 0.66 2 1 C0.515 4.465 0.515 4.465 -1 8 C0.98 7.67 2.96 7.34 5 7 C4.34 8.32 3.68 9.64 3 11 C1.125 10.75 1.125 10.75 -1 10 C-2.60963543 7.77717012 -3.07214218 6.61320852 -2.75 3.875 C-2 2 -2 2 0 0 Z " fill="#2F3C67" transform="translate(168,308)"/>
<path d="M0 0 C0.80050781 0.22042969 1.60101563 0.44085938 2.42578125 0.66796875 C3.23402344 0.88066406 4.04226562 1.09335937 4.875 1.3125 C5.79732422 1.58126953 5.79732422 1.58126953 6.73828125 1.85546875 C3.6410728 2.73387871 1.83182722 2.84982281 -1.26171875 1.85546875 C-0.60171875 3.50546875 0.05828125 5.15546875 0.73828125 6.85546875 C-1.72971922 5.7037352 -3.3095544 4.8076331 -5.26171875 2.85546875 C-2.89519796 -0.18501265 -2.89519796 -0.18501265 0 0 Z " fill="#457EA7" transform="translate(129.26171875,276.14453125)"/>
<path d="M0 0 C1.95216435 1.95216435 2.84826645 3.53199953 4 6 C4.66 4.02 5.32 2.04 6 0 C6.33 0 6.66 0 7 0 C6.67 3.3 6.34 6.6 6 10 C2 8 2 8 0.75 5.5625 C0 3 0 3 0 0 Z " fill="#364D7B" transform="translate(74,260)"/>
<path d="M0 0 C3.52593616 0.65295114 6.22945596 1.6912133 9 4 C9.3125 7.6875 9.3125 7.6875 9 11 C8.731875 10.38125 8.46375 9.7625 8.1875 9.125 C7.04443152 6.7004767 7.04443152 6.7004767 4 5 C4.33 4.34 4.66 3.68 5 3 C3.02 3 1.04 3 -1 3 C-0.67 2.01 -0.34 1.02 0 0 Z " fill="#6A96B5" transform="translate(223,255)"/>
<path d="M0 0 C0.99 0.33 1.98 0.66 3 1 C3 1.66 3 2.32 3 3 C1.6078125 3.3403125 1.6078125 3.3403125 0.1875 3.6875 C-3.54469713 5.22428705 -4.1724155 6.52758945 -6 10 C-6.66 10 -7.32 10 -8 10 C-7.4346089 6.49304707 -6.31277274 4.97267387 -3.625 2.6875 C-3.01914063 2.15511719 -2.41328125 1.62273437 -1.7890625 1.07421875 C-0.90347656 0.54248047 -0.90347656 0.54248047 0 0 Z " fill="#2F416F" transform="translate(187,236)"/>
<path d="M0 0 C2.97 0.495 2.97 0.495 6 1 C5.625 2.9375 5.625 2.9375 5 5 C4.01 5.495 4.01 5.495 3 6 C2.34 6.66 1.68 7.32 1 8 C0.40267181 5.23735711 0 2.83967231 0 0 Z " fill="#2B75B1" transform="translate(75,235)"/>
<path d="M0 0 C0.33 0 0.66 0 1 0 C1.66 2.31 2.32 4.62 3 7 C-0.465 8.485 -0.465 8.485 -4 10 C-3.4359146 6.05140217 -2.2568294 3.29120954 0 0 Z " fill="#4F8DBF" transform="translate(93,196)"/>
<path d="M0 0 C2.97 0.99 5.94 1.98 9 3 C5.16380575 3.95904856 3.67568464 3.91892116 0 3 C-0.33 3.99 -0.66 4.98 -1 6 C-1.99 6 -2.98 6 -4 6 C-4.33 6.66 -4.66 7.32 -5 8 C-4.45773019 4.20411134 -2.79872437 2.52788007 0 0 Z " fill="#48799F" transform="translate(142,291)"/>
<path d="M0 0 C1.32 0.33 2.64 0.66 4 1 C4 2.32 4 3.64 4 5 C0.37 5 -3.26 5 -7 5 C-7 4.67 -7 4.34 -7 4 C-5.02 4 -3.04 4 -1 4 C-0.67 2.68 -0.34 1.36 0 0 Z " fill="#073571" transform="translate(365,273)"/>
<path d="M0 0 C0.66 0.99 1.32 1.98 2 3 C3.32 3 4.64 3 6 3 C5.67 3.99 5.34 4.98 5 6 C3.125 6.875 3.125 6.875 1 7 C-0.75 5.75 -0.75 5.75 -2 4 C-2 3.01 -2 2.02 -2 1 C-1.34 0.67 -0.68 0.34 0 0 Z " fill="#04367F" transform="translate(329,270)"/>
<path d="M0 0 C1.32 0.66 2.64 1.32 4 2 C4 2.99 4 3.98 4 5 C3.34 5 2.68 5 2 5 C2.33 6.98 2.66 8.96 3 11 C2.34 11 1.68 11 1 11 C0.63743142 9.5437328 0.28520207 8.08488815 -0.0625 6.625 C-0.35833984 5.40683594 -0.35833984 5.40683594 -0.66015625 4.1640625 C-1 2 -1 2 0 0 Z " fill="#5B8FBD" transform="translate(87,247)"/>
<path d="M0 0 C1.98 0.99 3.96 1.98 6 3 C6 3.99 6 4.98 6 6 C4.68 6.33 3.36 6.66 2 7 C0 2.25 0 2.25 0 0 Z " fill="#357AAC" transform="translate(77,239)"/>
<path d="M0 0 C3.95820859 0.56545837 6.6659053 1.80902348 10 4 C9.67 4.99 9.34 5.98 9 7 C8.67 6.01 8.34 5.02 8 4 C7.236875 3.855625 6.47375 3.71125 5.6875 3.5625 C3 3 3 3 0 2 C0 2.66 0 3.32 0 4 C-0.66 4 -1.32 4 -2 4 C-1.34 2.68 -0.68 1.36 0 0 Z " fill="#6088AA" transform="translate(100,240)"/>
<path d="M0 0 C1.32 0.33 2.64 0.66 4 1 C0.535 3.97 0.535 3.97 -3 7 C-3.66 6.34 -4.32 5.68 -5 5 C-5 4.01 -5 3.02 -5 2 C-4.01 1.67 -3.02 1.34 -2 1 C-1.34 1.33 -0.68 1.66 0 2 C0 1.34 0 0.68 0 0 Z " fill="#30477B" transform="translate(105,217)"/>
<path d="M0 0 C1.125 1.625 1.125 1.625 2 4 C1.125 7.25 1.125 7.25 0 10 C-0.99 10 -1.98 10 -3 10 C-2.25 3.375 -2.25 3.375 0 0 Z " fill="#4D87B4" transform="translate(81,214)"/>
<path d="M0 0 C0.99 0.33 1.98 0.66 3 1 C2.67 1.66 2.34 2.32 2 3 C0.68 3 -0.64 3 -2 3 C-2 3.66 -2 4.32 -2 5 C-3.32 4.67 -4.64 4.34 -6 4 C-6 4.99 -6 5.98 -6 7 C-6.66 7 -7.32 7 -8 7 C-7.875 5.125 -7.875 5.125 -7 3 C-4 1.8125 -4 1.8125 -1 1 C-0.67 0.67 -0.34 0.34 0 0 Z " fill="#4685B0" transform="translate(121,203)"/>
<path d="M0 0 C3.3 0 6.6 0 10 0 C7.47211993 2.79872437 5.79588866 4.45773019 2 5 C1.34 3.35 0.68 1.7 0 0 Z " fill="#4177AA" transform="translate(176,300)"/>
<path d="M0 0 C-1 3 -1 3 -4 5 C-7.1875 5.125 -7.1875 5.125 -10 5 C-10 4.34 -10 3.68 -10 3 C-8.70990357 2.49596232 -7.41786211 1.99690074 -6.125 1.5 C-5.04605469 1.08234375 -5.04605469 1.08234375 -3.9453125 0.65625 C-2 0 -2 0 0 0 Z " fill="#0A2F72" transform="translate(283,274)"/>
<path d="M0 0 C0.33 0.99 0.66 1.98 1 3 C0.67 3.33 0.34 3.66 0 4 C0.09002398 6.02408755 0.24641038 8.04544287 0.4375 10.0625 C0.53933594 11.16722656 0.64117187 12.27195313 0.74609375 13.41015625 C0.82988281 14.26480469 0.91367188 15.11945313 1 16 C0.01 15.34 -0.98 14.68 -2 14 C-2.36328125 11.25 -2.36328125 11.25 -2.3125 8 C-2.30863281 6.9275 -2.30476563 5.855 -2.30078125 4.75 C-2 2 -2 2 0 0 Z " fill="#4A7FA8" transform="translate(89,227)"/>
<path d="M0 0 C3.4375 0.8125 3.4375 0.8125 7 2 C7.33 2.99 7.66 3.98 8 5 C5.75 5.25 5.75 5.25 3 5 C0.6875 3 0.6875 3 -1 1 C-0.67 0.67 -0.34 0.34 0 0 Z " fill="#01367F" transform="translate(311,217)"/>
<path d="M0 0 C2.4375 0.75 2.4375 0.75 5 2 C5.8125 4.125 5.8125 4.125 6 6 C5.01 6.495 5.01 6.495 4 7 C4 6.34 4 5.68 4 5 C3.34 5 2.68 5 2 5 C1.67 6.32 1.34 7.64 1 9 C0.67 6.03 0.34 3.06 0 0 Z " fill="#263F78" transform="translate(73,249)"/>
<path d="M0 0 C0.66 0.33 1.32 0.66 2 1 C1.51917969 1.54140625 1.03835937 2.0828125 0.54296875 2.640625 C-1.31323558 5.47897288 -1.48737656 7.38792626 -1.6875 10.75 C-1.75324219 11.73484375 -1.81898438 12.7196875 -1.88671875 13.734375 C-1.92410156 14.48203125 -1.96148437 15.2296875 -2 16 C-2.33 16 -2.66 16 -3 16 C-3.27672202 14.08700862 -3.52042815 12.16922064 -3.75 10.25 C-3.88921875 9.18265625 -4.0284375 8.1153125 -4.171875 7.015625 C-4 4 -4 4 -2.015625 1.609375 C-1.35046875 1.07828125 -0.6853125 0.5471875 0 0 Z " fill="#45629A" transform="translate(214,213)"/>
<path d="M0 0 C0.66 0.66 1.32 1.32 2 2 C3.32 1.34 4.64 0.68 6 0 C4.84826645 2.46800047 3.95216435 4.04783565 2 6 C-0.125 5.625 -0.125 5.625 -2 5 C-1.34 3.35 -0.68 1.7 0 0 Z " fill="#4978AA" transform="translate(88,203)"/>
<path d="M0 0 C4.30764815 1.56641751 8.06171464 3.68336156 12 6 C12 6.33 12 6.66 12 7 C9.15382151 7.517487 7.50716808 7.34894002 5.109375 5.69921875 C3.3339267 4.18720079 1.61626937 2.68147909 0 1 C0 0.67 0 0.34 0 0 Z " fill="#5F8EB4" transform="translate(99,310)"/>
<path d="M0 0 C0.33 0 0.66 0 1 0 C1.66 3.3 2.32 6.6 3 10 C1.68 10.99 0.36 11.98 -1 13 C-0.34 11.35 0.32 9.7 1 8 C0.34 8 -0.32 8 -1 8 C-1.125 2.25 -1.125 2.25 0 0 Z " fill="#6F95B4" transform="translate(123,264)"/>
<path d="M0 0 C0.33 0 0.66 0 1 0 C1.19335938 0.63808594 1.38671875 1.27617187 1.5859375 1.93359375 C1.84632813 2.75988281 2.10671875 3.58617187 2.375 4.4375 C2.63023437 5.26121094 2.88546875 6.08492187 3.1484375 6.93359375 C3.80882227 9.17798016 3.80882227 9.17798016 6 10 C6 10.66 6 11.32 6 12 C4.02 11.34 2.04 10.68 0 10 C0 6.7 0 3.4 0 0 Z " fill="#4166A7" transform="translate(212,220)"/>
<path d="M0 0 C0.33 0 0.66 0 1 0 C1 1.65 1 3.3 1 5 C1.66 5.33 2.32 5.66 3 6 C3.625 9.0625 3.625 9.0625 4 12 C3.01 11.67 2.02 11.34 1 11 C0.63890458 9.35567294 0.28629924 7.7094792 -0.0625 6.0625 C-0.25972656 5.14597656 -0.45695313 4.22945312 -0.66015625 3.28515625 C-0.77230469 2.53105469 -0.88445312 1.77695313 -1 1 C-0.67 0.67 -0.34 0.34 0 0 Z " fill="#386AC0" transform="translate(213,217)"/>
<path d="M0 0 C2.26939243 0.52618405 4.46039526 1.13295893 6.6640625 1.88671875 C6.6640625 2.21671875 6.6640625 2.54671875 6.6640625 2.88671875 C5.4265625 2.82484375 4.1890625 2.76296875 2.9140625 2.69921875 C-0.11805052 2.68309049 -1.15842046 2.78020852 -3.8359375 4.38671875 C-4.3309375 4.88171875 -4.8259375 5.37671875 -5.3359375 5.88671875 C-5.9959375 5.55671875 -6.6559375 5.22671875 -7.3359375 4.88671875 C-3.60020811 -0.17459203 -3.60020811 -0.17459203 0 0 Z " fill="#49789A" transform="translate(178.3359375,193.11328125)"/>
<path d="M0 0 C1.32 0.33 2.64 0.66 4 1 C3.67 2.98 3.34 4.96 3 7 C2.01 6.67 1.02 6.34 0 6 C0 4.02 0 2.04 0 0 Z " fill="#3C7FAA" transform="translate(116,300)"/>
<path d="M0 0 C0.66 0.33 1.32 0.66 2 1 C2.67375452 3.088639 3 4.80363095 3 7 C0.525 6.01 0.525 6.01 -2 5 C-2 3.68 -2 2.36 -2 1 C-1.34 0.67 -0.68 0.34 0 0 Z " fill="#6D9CC2" transform="translate(116,250)"/>
<path d="M0 0 C1.70116376 0.94011682 3.36504293 1.94895617 5 3 C6.32608822 3.68096422 7.65686601 4.35330586 9 5 C7.375 5.6875 7.375 5.6875 5 6 C-0.66666667 3.66666667 -0.66666667 3.66666667 -2 1 C-1.34 0.67 -0.68 0.34 0 0 Z " fill="#507FA4" transform="translate(114,214)"/>
<path d="M0 0 C1 2 1 2 0.4375 4.5625 C-1 7 -1 7 -4.125 7.8125 C-5.548125 7.9053125 -5.548125 7.9053125 -7 8 C-3.375 2.25 -3.375 2.25 0 0 Z " fill="#4B85B5" transform="translate(109,181)"/>
<path d="M0 0 C0.33 1.32 0.66 2.64 1 4 C-3.49222798 6.99481865 -3.49222798 6.99481865 -6 8 C-8.9375 7.25 -8.9375 7.25 -11 6 C-8 5 -8 5 -5.5 4.6875 C-2.41706288 3.83969229 -1.63768188 2.67200728 0 0 Z " fill="#4E73AA" transform="translate(145,179)"/>
<path d="M0 0 C2.31 0.33 4.62 0.66 7 1 C7 1.99 7 2.98 7 4 C4.69 4 2.38 4 0 4 C0 2.68 0 1.36 0 0 Z " fill="#3580B5" transform="translate(122,183)"/>
<path d="M0 0 C0.8353125 0.37125 0.8353125 0.37125 1.6875 0.75 C0.6975 1.08 -0.2925 1.41 -1.3125 1.75 C-2.31892948 3.07848691 -3.31942179 4.41150329 -4.3125 5.75 C-4.9725 5.75 -5.6325 5.75 -6.3125 5.75 C-6.6425 7.07 -6.9725 8.39 -7.3125 9.75 C-7.625 7 -7.625 7 -7.3125 3.75 C-3.50153592 -0.37854442 -3.50153592 -0.37854442 0 0 Z " fill="#26366C" transform="translate(212.3125,168.25)"/>
<path d="M0 0 C5.53846154 0.49230769 5.53846154 0.49230769 7.875 3.0625 C8.431875 4.0215625 8.431875 4.0215625 9 5 C3.46153846 4.50769231 3.46153846 4.50769231 1.125 1.9375 C0.75375 1.298125 0.3825 0.65875 0 0 Z " fill="#5F9DCA" transform="translate(149,318)"/>
<path d="M0 0 C0.99 0 1.98 0 3 0 C3.66 1.98 4.32 3.96 5 6 C3.35 6 1.7 6 0 6 C-0.38218767 4.34385343 -0.71395102 2.67542976 -1 1 C-0.67 0.67 -0.34 0.34 0 0 Z " fill="#629DCB" transform="translate(89,292)"/>
<path d="M0 0 C0.99 0.66 1.98 1.32 3 2 C1.8125 3.5625 1.8125 3.5625 0 5 C-2.625 4.8125 -2.625 4.8125 -5 4 C-5.33 3.34 -5.66 2.68 -6 2 C-3.1875 0.875 -3.1875 0.875 0 0 Z " fill="#447BAA" transform="translate(156,229)"/>
<path d="M0 0 C2.97 0.99 5.94 1.98 9 3 C9 3.33 9 3.66 9 4 C5.37 4 1.74 4 -2 4 C-1.34 2.68 -0.68 1.36 0 0 Z " fill="#457EA6" transform="translate(109,279)"/>
<path d="M0 0 C1.98 0 3.96 0 6 0 C5.42655063 2.86724686 5.1385485 3.8614515 3 6 C3 4.68 3 3.36 3 2 C2.34 1.67 1.68 1.34 1 1 C0.34 2.32 -0.32 3.64 -1 5 C-1 2 -1 2 0 0 Z " fill="#08336E" transform="translate(343,269)"/>
<path d="M0 0 C0.20086443 3.71599191 0.1519437 4.77208445 -2 8 C-2.66 8 -3.32 8 -4 8 C-4.36780384 3.46375267 -4.36780384 3.46375267 -2.5625 1.1875 C-1 0 -1 0 0 0 Z " fill="#6FA0C6" transform="translate(114,226)"/>
<path d="M0 0 C0.66 0.33 1.32 0.66 2 1 C-0.31 3.64 -2.62 6.28 -5 9 C-5.99 8.67 -6.98 8.34 -8 8 C-5.36 5.36 -2.72 2.72 0 0 Z " fill="#5375A1" transform="translate(103,185)"/>
<path d="M0 0 C0.99 0 1.98 0 3 0 C2.67 2.31 2.34 4.62 2 7 C1.01 7.33 0.02 7.66 -1 8 C-1.125 2.25 -1.125 2.25 0 0 Z " fill="#417DA4" transform="translate(130,178)"/>
<path d="M0 0 C0.99 0.99 1.98 1.98 3 3 C1.35 4.32 -0.3 5.64 -2 7 C-2.33 6.34 -2.66 5.68 -3 5 C-3.66 4.67 -4.32 4.34 -5 4 C-4.360625 3.71125 -3.72125 3.4225 -3.0625 3.125 C-0.84793921 2.17176549 -0.84793921 2.17176549 0 0 Z " fill="#2D4C83" transform="translate(147,170)"/>
<path d="M0 0 C2.88437779 1.29299694 4.87219421 2.65941363 7 5 C6.67 5.66 6.34 6.32 6 7 C3 5.1875 3 5.1875 0 3 C0 2.01 0 1.02 0 0 Z " fill="#4A88BB" transform="translate(101,308)"/>
<path d="M0 0 C3 0 3 0 5 1 C4.625 3.4375 4.625 3.4375 4 6 C3.01 6.495 3.01 6.495 2 7 C1.34 4.69 0.68 2.38 0 0 Z " fill="#223C7E" transform="translate(75,260)"/>
<path d="M0 0 C0.99 0.33 1.98 0.66 3 1 C2.67 2.32 2.34 3.64 2 5 C1.01 5 0.02 5 -1 5 C-1.33 5.66 -1.66 6.32 -2 7 C-2.125 4.625 -2.125 4.625 -2 2 C-1.34 1.34 -0.68 0.68 0 0 Z " fill="#4469AB" transform="translate(136,237)"/>
<path d="M0 0 C0.33 1.32 0.66 2.64 1 4 C1.99 4 2.98 4 4 4 C4 5.65 4 7.3 4 9 C2.68 8.34 1.36 7.68 0 7 C0 4.69 0 2.38 0 0 Z " fill="#699BC3" transform="translate(103,230)"/>
<path d="M0 0 C0.33 1.32 0.66 2.64 1 4 C-2.01031744 4.93423645 -2.86650268 5.04449911 -6 4 C-6 3.34 -6 2.68 -6 2 C-2.25 0 -2.25 0 0 0 Z " fill="#66A3D5" transform="translate(146,202)"/>
<path d="M0 0 C2 0 2 0 4.625 2.375 C7 5 7 5 7 7 C5.1875 6.875 5.1875 6.875 3 6 C1.25 2.9375 1.25 2.9375 0 0 Z " fill="#487DA2" transform="translate(138,300)"/>
<path d="M0 0 C4.67692308 1.47692308 4.67692308 1.47692308 6.3125 4.125 C6.539375 4.74375 6.76625 5.3625 7 6 C6.01 5.67 5.02 5.34 4 5 C4 4.34 4 3.68 4 3 C2.35 3.33 0.7 3.66 -1 4 C-0.67 2.68 -0.34 1.36 0 0 Z " fill="#5B84B4" transform="translate(82,266)"/>
<path d="M0 0 C6.15234375 0.5859375 6.15234375 0.5859375 8 1 C8.33 1.66 8.66 2.32 9 3 C6.03 3 3.06 3 0 3 C0 2.01 0 1.02 0 0 Z " fill="#0A2B69" transform="translate(380,266)"/>
<path d="M0 0 C0 0.66 0 1.32 0 2 C-0.66 2 -1.32 2 -2 2 C-2.33 2.66 -2.66 3.32 -3 4 C-3.98020375 5.0194119 -4.97803008 6.02246356 -6 7 C-6.99 6.67 -7.98 6.34 -9 6 C-7.8803014 4.99406757 -6.7540588 3.9954151 -5.625 3 C-4.68527344 2.1646875 -4.68527344 2.1646875 -3.7265625 1.3125 C-2 0 -2 0 0 0 Z " fill="#6491B2" transform="translate(112,219)"/>
<path d="M0 0 C0.33 0.66 0.66 1.32 1 2 C1.66 2 2.32 2 3 2 C2.67 3.32 2.34 4.64 2 6 C1.01 6 0.02 6 -1 6 C-1.33 5.01 -1.66 4.02 -2 3 C-1.34 2.01 -0.68 1.02 0 0 Z " fill="#254284" transform="translate(169,309)"/>
<path d="M0 0 C0.99 0 1.98 0 3 0 C3 1.32 3 2.64 3 4 C3.99 3.67 4.98 3.34 6 3 C6 3.66 6 4.32 6 5 C4.02 5 2.04 5 0 5 C0 3.35 0 1.7 0 0 Z " fill="#0B3B75" transform="translate(289,274)"/>
<path d="M0 0 C4.92307692 4.18461538 4.92307692 4.18461538 5.3125 8.3125 C5.209375 9.199375 5.10625 10.08625 5 11 C3 8 3 8 2.5625 6 C1.88956841 3.60735436 0.85094194 2.60951473 -1 1 C-0.67 0.67 -0.34 0.34 0 0 Z " fill="#355185" transform="translate(75,247)"/>
<path d="M0 0 C1.65 0.33 3.3 0.66 5 1 C5 1.99 5 2.98 5 4 C3.02 4 1.04 4 -1 4 C-0.67 2.68 -0.34 1.36 0 0 Z " fill="#083A78" transform="translate(279,237)"/>
<path d="M0 0 C2.475 0.99 2.475 0.99 5 2 C4.67 2.66 4.34 3.32 4 4 C1.03 3.505 1.03 3.505 -2 3 C-1.34 2.01 -0.68 1.02 0 0 Z " fill="#3F60AD" transform="translate(142,232)"/>
<path d="M0 0 C1.32 0 2.64 0 4 0 C3.67 1.65 3.34 3.3 3 5 C2.01 5 1.02 5 0 5 C0 3.35 0 1.7 0 0 Z " fill="#3A81AA" transform="translate(88,231)"/>
<path d="M0 0 C0.99 0.495 0.99 0.495 2 1 C2 2.32 2 3.64 2 5 C3.32 5.33 4.64 5.66 6 6 C4.35 7.32 2.7 8.64 1 10 C0.67 6.7 0.34 3.4 0 0 Z " fill="#3F8EBC" transform="translate(144,217)"/>
<path d="M0 0 C1.32 0.66 2.64 1.32 4 2 C1.06279492 3.52299523 -1.9168649 4.80100302 -5 6 C-3.35 4.02 -1.7 2.04 0 0 Z " fill="#324B76" transform="translate(92,207)"/>
<path d="M0 0 C0.86625 0.3403125 0.86625 0.3403125 1.75 0.6875 C0.5625 2.25 0.5625 2.25 -1.25 3.6875 C-3.9375 3.375 -3.9375 3.375 -6.25 2.6875 C-2.80384615 -0.38942308 -2.80384615 -0.38942308 0 0 Z " fill="#4B7CA0" transform="translate(151.25,305.3125)"/>
<path d="M0 0 C2.97 0.495 2.97 0.495 6 1 C6 1.99 6 2.98 6 4 C3.83125748 3.49396008 2.00032373 3.00016187 0 2 C0 1.34 0 0.68 0 0 Z " fill="#6798B8" transform="translate(85,283)"/>
<path d="M0 0 C0 2.31 0 4.62 0 7 C-3.875 3.25 -3.875 3.25 -5 1 C-2 0 -2 0 0 0 Z " fill="#08346D" transform="translate(360,252)"/>
<path d="M0 0 C1.98 0.99 3.96 1.98 6 3 C6 4.65 6 6.3 6 8 C1.125 3.375 1.125 3.375 0 0 Z " fill="#2D3F6A" transform="translate(192,238)"/>
<path d="M0 0 C1.65 0 3.3 0 5 0 C3.79618552 2.49361571 2.54571278 4.68143083 1 7 C0.67 4.69 0.34 2.38 0 0 Z " fill="#0C3373" transform="translate(267,223)"/>
<path d="M0 0 C0.99 0.33 1.98 0.66 3 1 C3.33 2.65 3.66 4.3 4 6 C2.35 5.67 0.7 5.34 -1 5 C-0.67 3.35 -0.34 1.7 0 0 Z " fill="#477EAB" transform="translate(123,178)"/>
<path d="" fill="#FFFFFF" transform="translate(0,0)"/>
<path d="" fill="#FFFFFF" transform="translate(0,0)"/>
<path d="" fill="#FFFFFF" transform="translate(0,0)"/>
<path d="" fill="#FFFFFF" transform="translate(0,0)"/>
<path d="" fill="#FFFFFF" transform="translate(0,0)"/>
<path d="" fill="#FFFFFF" transform="translate(0,0)"/>
<path d="" fill="#FFFFFF" transform="translate(0,0)"/>
<path d="" fill="#FFFFFF" transform="translate(0,0)"/>
<path d="" fill="#FFFFFF" transform="translate(0,0)"/>
<path d="" fill="#FFFFFF" transform="translate(0,0)"/>
<path d="" fill="#FFFFFF" transform="translate(0,0)"/>
<path d="" fill="#FFFFFF" transform="translate(0,0)"/>
<path d="" fill="#FFFFFF" transform="translate(0,0)"/>
<path d="" fill="#FFFFFF" transform="translate(0,0)"/>
<path d="" fill="#FFFFFF" transform="translate(0,0)"/>
<path d="" fill="#FFFFFF" transform="translate(0,0)"/>
<path d="" fill="#FFFFFF" transform="translate(0,0)"/>
<path d="" fill="#FFFFFF" transform="translate(0,0)"/>
<path d="" fill="#FFFFFF" transform="translate(0,0)"/>
<path d="" fill="#FFFFFF" transform="translate(0,0)"/>
<path d="" fill="#FFFFFF" transform="translate(0,0)"/>
<path d="" fill="#FFFFFF" transform="translate(0,0)"/>
<path d="" fill="#FFFFFF" transform="translate(0,0)"/>
<path d="" fill="#FFFFFF" transform="translate(0,0)"/>
<path d="" fill="#FFFFFF" transform="translate(0,0)"/>
<path d="" fill="#FFFFFF" transform="translate(0,0)"/>
<path d="" fill="#FFFFFF" transform="translate(0,0)"/>
<path d="" fill="#FFFFFF" transform="translate(0,0)"/>
<path d="" fill="#FFFFFF" transform="translate(0,0)"/>
<path d="" fill="#FFFFFF" transform="translate(0,0)"/>
<path d="" fill="#FFFFFF" transform="translate(0,0)"/>
<path d="" fill="#FFFFFF" transform="translate(0,0)"/>
<path d="" fill="#FFFFFF" transform="translate(0,0)"/>
<path d="" fill="#FFFFFF" transform="translate(0,0)"/>
<path d="" fill="#FFFFFF" transform="translate(0,0)"/>
<path d="" fill="#FFFFFF" transform="translate(0,0)"/>
<path d="" fill="#FFFFFF" transform="translate(0,0)"/>
<path d="" fill="#FFFFFF" transform="translate(0,0)"/>
<path d="" fill="#FFFFFF" transform="translate(0,0)"/>
<path d="" fill="#FFFFFF" transform="translate(0,0)"/>
<path d="" fill="#FFFFFF" transform="translate(0,0)"/>
<path d="" fill="#FFFFFF" transform="translate(0,0)"/>
<path d="" fill="#FFFFFF" transform="translate(0,0)"/>
<path d="" fill="#FFFFFF" transform="translate(0,0)"/>
<path d="" fill="#FFFFFF" transform="translate(0,0)"/>
<path d="" fill="#FFFFFF" transform="translate(0,0)"/>
<path d="" fill="#FFFFFF" transform="translate(0,0)"/>
<path d="" fill="#FFFFFF" transform="translate(0,0)"/>
<path d="" fill="#FFFFFF" transform="translate(0,0)"/>
<path d="" fill="#FFFFFF" transform="translate(0,0)"/>
<path d="" fill="#FFFFFF" transform="translate(0,0)"/>
<path d="" fill="#FFFFFF" transform="translate(0,0)"/>
<path d="" fill="#FFFFFF" transform="translate(0,0)"/>
<path d="" fill="#FFFFFF" transform="translate(0,0)"/>
<path d="" fill="#FFFFFF" transform="translate(0,0)"/>
<path d="" fill="#FFFFFF" transform="translate(0,0)"/>
<path d="" fill="#FFFFFF" transform="translate(0,0)"/>
<path d="" fill="#FFFFFF" transform="translate(0,0)"/>
<path d="" fill="#FFFFFF" transform="translate(0,0)"/>
<path d="" fill="#FFFFFF" transform="translate(0,0)"/>
<path d="" fill="#FFFFFF" transform="translate(0,0)"/>
<path d="" fill="#FFFFFF" transform="translate(0,0)"/>
<path d="" fill="#FFFFFF" transform="translate(0,0)"/>
<path d="" fill="#FFFFFF" transform="translate(0,0)"/>
<path d="" fill="#FFFFFF" transform="translate(0,0)"/>
<path d="" fill="#FFFFFF" transform="translate(0,0)"/>
<path d="" fill="#FFFFFF" transform="translate(0,0)"/>
<path d="" fill="#FFFFFF" transform="translate(0,0)"/>
<path d="" fill="#FFFFFF" transform="translate(0,0)"/>
<path d="" fill="#FFFFFF" transform="translate(0,0)"/>
<path d="" fill="#FFFFFF" transform="translate(0,0)"/>
</svg>
